<?xml version="1.0" encoding="utf-8"?>
<!-- Generator: Adobe Illustrator 16.0.0, SVG Export Plug-In . SVG Version: 6.00 Build 0)  -->
<!DOCTYPE svg PUBLIC "-//W3C//DTD SVG 1.1//EN" "http://www.w3.org/Graphics/SVG/1.1/DTD/svg11.dtd">
<svg version="1.1" id="Layer_1" xmlns="http://www.w3.org/2000/svg" xmlns:xlink="http://www.w3.org/1999/xlink" x="0px" y="0px"
	 width="168px" height="46px" viewBox="0 0 168 46" enable-background="new 0 0 168 46" xml:space="preserve">
<g>
	<g>
		<path fill="#FFFFFF" d="M60.162,29.853l0.059,1.778c0,0-3.293,0.466-5.654,0.466c-4.371,0-5.799-2.535-5.799-7.489
			c0-5.538,2.418-7.665,6.119-7.665c3.848,0,5.859,2.04,5.859,6.819l-0.117,1.69h-9.646c0.029,3.061,0.961,4.663,3.848,4.663
			C57.016,30.115,60.162,29.853,60.162,29.853z M58.561,23.675c0-3.498-1.137-4.78-3.674-4.78c-2.506,0-3.904,1.37-3.904,4.78
			H58.561z"/>
		<path fill="#FFFFFF" d="M64.535,10.88h2.156v20.926h-2.156V10.88z"/>
		<path fill="#FFFFFF" d="M81.758,28.862c0.059,0.933,0.758,1.224,1.689,1.341l-0.086,1.894c-1.75,0-2.682-0.32-3.439-1.107
			c0,0-2.623,1.107-5.393,1.107c-2.535,0-3.963-1.603-3.963-4.459c0-2.798,1.428-4.051,4.43-4.313l4.605-0.437v-1.195
			c0-1.836-0.934-2.652-2.535-2.652c-2.129,0-5.568,0.379-5.568,0.379l-0.086-1.894c0,0,3.496-0.583,5.74-0.583
			c3.09,0,4.605,1.457,4.605,4.75V28.862z M75.287,25.015c-1.777,0.175-2.506,1.079-2.506,2.565c0,1.69,0.758,2.623,2.068,2.623
			c2.217,0,4.752-0.875,4.752-0.875v-4.663L75.287,25.015z"/>
		<path fill="#FFFFFF" d="M96.418,19.391c0,0-3.234-0.467-5.1-0.467c-1.809,0-3.148,0.467-3.148,2.186
			c0,1.37,0.67,1.778,3.555,2.215c3.848,0.612,5.246,1.399,5.246,4.227c0,3.41-2.156,4.546-5.682,4.546
			c-1.865,0-5.131-0.554-5.131-0.554l0.117-1.894c0,0,3.322,0.495,4.809,0.495c2.391,0,3.672-0.524,3.672-2.507
			c0-1.516-0.758-1.865-3.672-2.331c-3.555-0.554-5.129-1.253-5.129-4.109c0-3.206,2.594-4.255,5.246-4.255
			c2.186,0,5.275,0.554,5.275,0.554L96.418,19.391z"/>
		<path fill="#FFFFFF" d="M103.645,19.216v6.79c0,3.177,0.176,4.051,2.1,4.051c0.814,0,2.594-0.146,2.594-0.146l0.115,1.895
			c0,0-1.922,0.32-2.943,0.32c-3.002,0-4.051-1.137-4.051-5.333v-7.577h-2.068v-1.982h2.068v-4.459h2.186v4.459h4.605v1.982H103.645
			z"/>
		<path fill="#FFFFFF" d="M111.543,11.404h2.158v2.536h-2.158V11.404z M111.543,17.233h2.158v14.572h-2.158V17.233z"/>
		<path fill="#FFFFFF" d="M127.514,17.379l-0.059,1.895c0,0-2.332-0.262-3.439-0.262c-3.352,0-4.254,1.398-4.254,5.245
			c0,4.256,0.67,5.8,4.254,5.8c1.107,0,3.469-0.262,3.469-0.262l0.088,1.895c0,0-2.74,0.407-4.051,0.407
			c-4.664,0-6.004-2.127-6.004-7.84c0-5.274,1.689-7.314,6.033-7.314C124.891,16.942,127.514,17.379,127.514,17.379z"/>
		<path fill="#999999" d="M131.332,31.806V17.233h2.186v0.991c0,0,1.748-1.05,3.643-1.166c0.584-0.059,1.137-0.087,1.604-0.029
			c1.225,0.117,2.098,0.524,2.682,1.225c0.846-0.321,3.264-1.312,5.275-1.312c3.963,0,4.926,1.895,4.926,7.286v7.577h-2.188v-6.907
			c0-4.459-0.291-5.945-3.059-5.945c-1.982,0-4.023,1.049-4.08,1.078c0.232,0.671,0.35,2.448,0.35,4.197v7.577h-2.188v-7.52
			c0-4.021-0.406-5.333-3.059-5.333c-1.953,0-3.906,1.078-3.906,1.078v11.774H131.332z"/>
		<path fill="#999999" d="M166.043,19.391c0,0-3.234-0.467-5.1-0.467c-1.809,0-3.148,0.467-3.148,2.186
			c0,1.37,0.67,1.778,3.555,2.215c3.848,0.612,5.246,1.399,5.246,4.227c0,3.41-2.156,4.546-5.682,4.546
			c-1.865,0-5.131-0.554-5.131-0.554l0.117-1.894c0,0,3.322,0.495,4.809,0.495c2.391,0,3.672-0.524,3.672-2.507
			c0-1.516-0.758-1.865-3.672-2.331c-3.555-0.554-5.129-1.253-5.129-4.109c0-3.206,2.594-4.255,5.246-4.255
			c2.186,0,5.275,0.554,5.275,0.554L166.043,19.391z"/>
	</g>
	<g>
		<path fill="none" d="M20.116,5.443c-0.81-0.14-1.624-0.217-2.436-0.217c-0.114,0-0.222,0.019-0.335,0.021
			c-0.482,0.607-0.948,1.332-1.381,2.189c0.178,0.188,0.354,0.369,0.533,0.569C17.678,7,18.893,6.139,20.116,5.443z"/>
		<path fill="none" d="M17.49,9.155c2.59,3.1,5.321,7.169,7.586,11.091c0.514,0.891,1.074,1.903,1.647,2.988
			c0.476,0.29,0.957,0.586,1.438,0.886c0.012-0.427,0.027-0.847,0.027-1.284c0-6.779-1.317-12.258-3.136-15.685
			c-0.872-0.458-1.767-0.843-2.675-1.142C20.739,6.729,19.084,7.792,17.49,9.155z"/>
		<path fill="none" d="M29.652,25.054c0.606,0.384,1.209,0.771,1.803,1.157c1.553-3.213,2.484-6.437,2.795-9.376
			c-0.236-0.487-0.482-0.972-0.759-1.449c-1.601-2.772-3.737-5.1-6.15-6.826c1.468,3.733,2.359,8.713,2.359,14.276
			C29.7,23.586,29.684,24.325,29.652,25.054z"/>
		<path fill="none" d="M20.543,42.265c-0.328-0.001-0.646-0.034-0.971-0.051c0.339,0.13,0.678,0.219,1.016,0.219
			s0.676-0.088,1.015-0.219c-0.337,0.018-0.669,0.051-1.01,0.051H20.543z"/>
		<path fill="none" d="M15.218,39.97c-0.064-0.107-0.129-0.219-0.192-0.331c-3.194-1.769-6.059-4.479-8.173-7.847
			c0.058,1.25,0.232,2.403,0.541,3.425C9.523,37.398,12.201,39.06,15.218,39.97z"/>
		<path fill="none" d="M11.529,20.541c-0.61-0.387-1.2-0.767-1.773-1.141c-1.543,3.172-2.506,6.419-2.815,9.471
			c0.233,0.477,0.476,0.95,0.744,1.415c1.601,2.773,3.738,5.101,6.151,6.829c-1.468-3.734-2.36-8.715-2.36-14.279
			C11.476,22.059,11.495,21.294,11.529,20.541z"/>
		<path fill="none" d="M23.686,36.523c-2.59-3.101-5.321-7.171-7.586-11.094c-0.604-1.045-1.174-2.085-1.721-3.116
			c-0.463-0.282-0.916-0.562-1.364-0.84c-0.012,0.451-0.028,0.898-0.028,1.362c0,6.781,1.318,12.262,3.139,15.688
			c0.873,0.458,1.768,0.843,2.677,1.142C20.439,38.946,22.094,37.886,23.686,36.523z"/>
		<path fill="none" d="M11.568,16.514c-0.059-0.029-0.121-0.062-0.179-0.091c-0.167,0.271-0.337,0.538-0.497,0.816
			c-0.148,0.257-0.278,0.518-0.42,0.776c0.378,0.247,0.768,0.499,1.17,0.757c0.047-0.578,0.107-1.144,0.174-1.704
			C11.734,16.884,11.647,16.696,11.568,16.514z"/>
		<path fill="none" d="M21.991,20.422c0.673,0.389,1.396,0.812,2.152,1.261c-0.13-0.229-0.247-0.447-0.381-0.678
			c-2.591-4.488-5.174-8.167-7.395-10.831c-0.765,0.734-1.508,1.542-2.226,2.402c-0.246,0.999-0.457,2.066-0.63,3.195
			C16.297,17.215,19.247,18.838,21.991,20.422z"/>
		<path fill="none" d="M27.383,27.928c-0.523-1.122-1.111-2.308-1.768-3.555c-1.371-0.833-2.836-1.702-4.4-2.605
			c-2.696-1.557-5.212-2.94-7.481-4.134c0.536,1.151,1.124,2.336,1.754,3.539c1.405,0.854,2.912,1.748,4.521,2.678
			C22.662,25.382,25.142,26.747,27.383,27.928z"/>
		<path fill="none" d="M30.465,31.24c0.771,1.946,1.39,3.821,1.725,5.442c0.42-0.338,0.82-0.699,1.208-1.072
			c0.556-0.725,1.047-1.502,1.452-2.339C33.559,32.727,32.065,32.029,30.465,31.24z"/>
		<path fill="none" d="M29.357,28.621c0.063,0.143,0.127,0.284,0.189,0.427c0.093,0.047,0.189,0.098,0.282,0.145
			c0.153-0.251,0.311-0.498,0.459-0.755c0.161-0.279,0.302-0.56,0.453-0.84c-0.388-0.254-0.788-0.514-1.202-0.778
			C29.49,27.432,29.428,28.03,29.357,28.621z"/>
		<path fill="none" d="M19.232,25.196c-0.77-0.444-1.525-0.889-2.273-1.332c0.151,0.27,0.299,0.537,0.454,0.807
			c2.592,4.49,5.174,8.17,7.396,10.834c0.764-0.732,1.504-1.537,2.221-2.396c0.253-1.024,0.469-2.12,0.646-3.282
			C24.901,28.389,21.965,26.773,19.232,25.196z"/>
		<path fill="none" d="M5.374,29.067c-1.871-4.042-2.547-8.406-1.895-12.5c-0.745,1.942-1.174,4.034-1.179,6.227
			c-0.009,3.681,1.123,7.107,3.065,9.961c-0.05-0.533-0.081-1.083-0.085-1.651C5.277,30.438,5.314,29.756,5.374,29.067z"/>
		<path fill="none" d="M9.188,17.165c0.126-0.231,0.242-0.465,0.374-0.694c0.145-0.251,0.299-0.49,0.448-0.735
			c-1.644-0.809-3.076-1.468-4.264-1.971c-0.096,0.26-0.173,0.531-0.255,0.799C6.486,15.308,7.719,16.181,9.188,17.165z"/>
		<path fill="none" d="M6.192,16.994c-0.401-0.283-0.765-0.546-1.108-0.798c-0.037,0.186-0.086,0.363-0.117,0.552
			c-0.494,3.042-0.18,6.251,0.85,9.349c0.519-2.492,1.409-5.049,2.644-7.552C7.659,18.01,6.893,17.488,6.192,16.994z"/>
		<path fill="none" d="M32.026,28.447c-0.138,0.253-0.262,0.507-0.407,0.759c-0.133,0.229-0.273,0.449-0.41,0.674
			c1.634,0.804,3.059,1.46,4.242,1.963c0.096-0.264,0.17-0.539,0.252-0.811C34.711,30.292,33.484,29.425,32.026,28.447z"/>
		<path fill="none" d="M28.384,33.869c-0.388,1.488-0.846,2.86-1.376,4.069c0.447,0.445,0.865,0.826,1.255,1.148
			c0.888-0.406,1.747-0.863,2.552-1.397c-0.216-1.267-0.689-2.979-1.457-5.062C29.039,33.053,28.715,33.467,28.384,33.869z"/>
		<path fill="none" d="M35.778,16.546c1.951,4.198,2.546,8.642,1.896,12.625c0.76-1.959,1.197-4.072,1.202-6.288
			c0.009-3.708-1.138-7.159-3.106-10.026C35.887,14.021,35.884,15.261,35.778,16.546z"/>
		<path fill="none" d="M21.622,3.463c-0.345-0.135-0.69-0.226-1.034-0.226c-0.341,0-0.684,0.09-1.026,0.223
			c0.341-0.018,0.677-0.051,1.022-0.051C20.935,3.41,21.276,3.444,21.622,3.463z"/>
		<path fill="none" d="M21.064,40.231c0.809,0.139,1.621,0.216,2.431,0.216c0.112,0,0.22-0.018,0.331-0.021
			c0.483-0.606,0.949-1.33,1.382-2.188c-0.176-0.188-0.351-0.367-0.529-0.566C23.5,38.677,22.287,39.537,21.064,40.231z"/>
		<path fill="none" d="M36.104,29.399c0.59-3.075,0.357-6.483-0.755-9.839c-0.498,2.438-1.365,4.981-2.599,7.504
			C33.959,27.87,35.098,28.659,36.104,29.399z"/>
		<path fill="none" d="M10.677,14.337c-0.333-0.854-0.638-1.686-0.894-2.471c-0.348-1.069-0.607-2.024-0.786-2.875
			c-0.431,0.347-0.843,0.715-1.24,1.099c-0.531,0.693-1.006,1.438-1.403,2.249C7.627,12.875,9.1,13.562,10.677,14.337z"/>
		<path fill="none" d="M11.812,13.065c0.318-0.428,0.644-0.844,0.977-1.249c0.388-1.492,0.847-2.867,1.378-4.079
			c-0.445-0.443-0.861-0.822-1.249-1.143c-0.892,0.406-1.753,0.865-2.56,1.401c0.138,0.857,0.401,1.968,0.868,3.401
			C11.4,11.934,11.6,12.493,11.812,13.065z"/>
		<path fill="none" d="M25.96,5.704c0.065,0.108,0.13,0.22,0.192,0.332c3.207,1.775,6.08,4.5,8.195,7.884
			c-0.053-1.233-0.225-2.392-0.537-3.432C31.676,8.293,28.989,6.62,25.96,5.704z"/>
		<path fill="none" d="M3.377,12.861c0.052,0.047,0.116,0.101,0.172,0.15c0.016-0.025,0.032-0.051,0.048-0.076
			C3.524,12.911,3.444,12.883,3.377,12.861z"/>
		<path fill="none" d="M25.955,39.974c0.254-0.076,0.496-0.174,0.744-0.261c-0.127-0.114-0.256-0.235-0.385-0.357
			C26.198,39.571,26.076,39.771,25.955,39.974z"/>
		<path fill="none" d="M10.775,39.836c0.495,0.286,1.027,0.501,1.59,0.649c-0.925-0.417-1.814-0.895-2.655-1.44
			C10.042,39.341,10.391,39.614,10.775,39.836z"/>
		<path fill="none" d="M10.907,5.433c-0.066-0.012-0.14-0.034-0.199-0.034c-0.071,0-0.128,0.012-0.169,0.034
			c-0.068,0.039-0.144,0.148-0.203,0.341c0.1-0.061,0.189-0.133,0.291-0.191C10.719,5.528,10.814,5.483,10.907,5.433z"/>
		<path fill="none" d="M15.298,8.936c-0.034,0.083-0.065,0.172-0.099,0.257c0.059-0.057,0.115-0.117,0.174-0.172
			C15.348,8.992,15.322,8.964,15.298,8.936z"/>
		<polygon fill="none" points="28.086,25.898 28.078,25.894 28.086,25.908 		"/>
		<path fill="none" d="M30.404,5.838c-0.514-0.297-1.066-0.52-1.652-0.667c0.961,0.43,1.885,0.923,2.756,1.491
			C31.167,6.354,30.807,6.069,30.404,5.838z"/>
		<path fill="none" d="M30.263,40.245c0.069,0.012,0.145,0.035,0.206,0.035c0.072,0,0.129-0.012,0.17-0.034
			c0.1-0.058,0.169-0.191,0.224-0.361c-0.106,0.065-0.203,0.144-0.312,0.207C30.455,40.146,30.358,40.193,30.263,40.245z"/>
		<path fill="none" d="M25.876,36.739c0.032-0.079,0.062-0.165,0.095-0.246c-0.057,0.054-0.111,0.111-0.167,0.165
			C25.828,36.686,25.853,36.713,25.876,36.739z"/>
		<path fill="none" d="M15.213,5.708c-0.249,0.076-0.488,0.175-0.732,0.26c0.125,0.113,0.251,0.232,0.378,0.352
			C14.973,6.106,15.094,5.908,15.213,5.708z"/>
		<path fill="none" d="M37.846,32.758c-0.054-0.049-0.12-0.105-0.18-0.157c-0.016,0.027-0.033,0.054-0.049,0.08
			C37.692,32.706,37.775,32.735,37.846,32.758z"/>
		<path fill="#8FCB30" d="M15.621,40.61c-0.139-0.204-0.271-0.42-0.403-0.641c-3.017-0.91-5.694-2.571-7.824-4.753
			c0.482,1.599,1.268,2.891,2.316,3.828c0.841,0.546,1.73,1.023,2.655,1.44c0.596,0.157,1.227,0.239,1.891,0.239
			C14.703,40.725,15.16,40.678,15.621,40.61z"/>
		<path fill="#8FCB30" d="M8.948,8.729c-0.431,0.42-0.821,0.88-1.191,1.361c0.397-0.384,0.81-0.752,1.24-1.099
			C8.979,8.899,8.965,8.817,8.948,8.729z"/>
		<path fill="#8FCB30" d="M2.301,22.794c0.005-2.192,0.434-4.284,1.179-6.227c0.003-0.02,0.004-0.04,0.007-0.06
			c0.072-0.447,0.176-0.878,0.277-1.308c-0.371-0.292-0.688-0.555-0.971-0.799c-1.257,2.543-1.985,5.381-1.992,8.389
			c-0.012,5.053,1.969,9.652,5.193,13.119c-0.311-0.962-0.52-2.019-0.628-3.154C3.424,29.901,2.292,26.475,2.301,22.794z"/>
		<path fill="#8FCB30" d="M25.955,39.974c-0.048,0.081-0.094,0.168-0.143,0.246c0.398-0.07,0.793-0.147,1.179-0.256
			c-0.098-0.084-0.193-0.162-0.292-0.251C26.451,39.8,26.209,39.897,25.955,39.974z"/>
		<path fill="#8FCB30" d="M25.559,5.065c0.137,0.203,0.27,0.419,0.401,0.639c3.029,0.916,5.716,2.589,7.851,4.784
			c-0.471-1.565-1.243-2.867-2.303-3.826c-0.871-0.568-1.795-1.062-2.756-1.491c-0.577-0.146-1.188-0.221-1.826-0.221
			C26.479,4.95,26.021,4.997,25.559,5.065z"/>
		<path fill="#8FCB30" d="M34.497,36.635c0.828-0.805,1.575-1.687,2.249-2.622c-0.165-0.059-0.338-0.123-0.516-0.189
			C35.752,34.83,35.173,35.771,34.497,36.635z"/>
		<path fill="#8FCB30" d="M15.213,5.708c0.051-0.083,0.098-0.173,0.148-0.254c-0.398,0.071-0.795,0.148-1.18,0.257
			c0.1,0.086,0.197,0.166,0.299,0.257C14.725,5.883,14.964,5.784,15.213,5.708z"/>
		<path fill="#8FCB30" d="M28.624,39.371c0.398-0.177,0.795-0.358,1.176-0.578c0.375-0.217,0.727-0.46,1.071-0.712
			c-0.018-0.129-0.033-0.252-0.057-0.392c-0.805,0.534-1.664,0.991-2.552,1.397C28.387,39.189,28.506,39.281,28.624,39.371z"/>
		<path fill="#8FCB30" d="M3.597,12.936c-0.016,0.025-0.032,0.051-0.048,0.076c0.199,0.176,0.424,0.365,0.682,0.574
			c0.043-0.126,0.077-0.258,0.123-0.382C4.079,13.102,3.826,13.012,3.597,12.936z"/>
		<path fill="#8FCB30" d="M12.549,6.305c-0.397,0.176-0.792,0.356-1.172,0.576c-0.375,0.217-0.73,0.459-1.078,0.712
			c0.016,0.127,0.037,0.263,0.059,0.403c0.807-0.536,1.668-0.995,2.56-1.401C12.79,6.489,12.669,6.396,12.549,6.305z"/>
		<path fill="#8FCB30" d="M22.25,4.407c0.191-0.078,0.382-0.143,0.572-0.212c-0.395-0.333-0.796-0.574-1.2-0.732
			c-0.346-0.019-0.688-0.053-1.038-0.054c-0.346,0-0.682,0.033-1.022,0.051C19.35,3.542,19.14,3.647,18.93,3.778
			C20.043,3.869,21.154,4.087,22.25,4.407z"/>
		<path fill="#8FCB30" d="M32.241,36.934c0.419-0.411,0.798-0.857,1.156-1.323c-0.388,0.373-0.788,0.734-1.208,1.072
			C32.206,36.767,32.226,36.852,32.241,36.934z"/>
		<path fill="#8FCB30" d="M36.832,32.4c0.285,0.108,0.547,0.201,0.785,0.28c0.016-0.026,0.033-0.053,0.049-0.08
			c-0.206-0.182-0.438-0.378-0.707-0.596C36.914,32.136,36.879,32.271,36.832,32.4z"/>
		<path fill="#8FCB30" d="M18.931,41.269c-0.191,0.077-0.382,0.142-0.572,0.211c0.399,0.335,0.806,0.578,1.214,0.734
			c0.324,0.017,0.643,0.05,0.971,0.051h0.05c0.341,0,0.673-0.033,1.01-0.051c0.214-0.081,0.427-0.188,0.639-0.319
			C21.131,41.804,20.023,41.587,18.931,41.269z"/>
		<path fill="#8FCB30" d="M38.876,22.883c-0.005,2.216-0.442,4.329-1.202,6.288c-0.067,0.416-0.162,0.821-0.258,1.227
			c0.361,0.285,0.695,0.56,0.996,0.82c1.238-2.528,1.957-5.346,1.964-8.331c0.012-5.079-1.989-9.698-5.246-13.172
			c0.315,0.969,0.528,2.022,0.64,3.142C37.738,15.724,38.885,19.175,38.876,22.883z"/>
		<path fill="#8FCB30" d="M6.647,9.068c-0.799,0.78-1.519,1.635-2.174,2.538c0.156,0.055,0.32,0.116,0.487,0.178
			C5.433,10.805,5.998,9.898,6.647,9.068z"/>
		<path fill="#00BCB2" d="M30.639,40.246c-0.041,0.022-0.098,0.034-0.17,0.034c-0.062,0-0.137-0.023-0.206-0.035
			c-0.583,0.319-1.185,0.593-1.802,0.822c0.742,0.461,1.423,0.729,2.008,0.729c0.342,0,0.652-0.08,0.927-0.238
			c0.8-0.462,1.105-1.472,1.061-2.828c-0.5,0.418-1.028,0.807-1.594,1.154C30.808,40.055,30.738,40.188,30.639,40.246z"/>
		<path fill="#00BCB2" d="M28.078,25.894c-0.782-0.491-1.601-0.997-2.463-1.521c0.656,1.247,1.244,2.433,1.768,3.555
			c0.172,0.091,0.337,0.177,0.507,0.265c0.083-0.739,0.147-1.501,0.196-2.284C28.083,25.903,28.081,25.898,28.078,25.894z"/>
		<path fill="#00BCB2" d="M11.568,16.514c0.079,0.183,0.166,0.37,0.248,0.555c0.016-0.134,0.027-0.272,0.044-0.405
			C11.764,16.614,11.664,16.562,11.568,16.514z"/>
		<path fill="#00BCB2" d="M11.812,13.065c-0.212-0.572-0.411-1.132-0.586-1.668c-0.467-1.434-0.73-2.544-0.868-3.401
			c-0.469,0.312-0.924,0.643-1.36,0.995c0.179,0.851,0.438,1.806,0.786,2.875c0.256,0.785,0.561,1.616,0.894,2.471
			c0.058,0.028,0.115,0.058,0.173,0.086C11.162,13.958,11.482,13.506,11.812,13.065z"/>
		<path fill="#00BCB2" d="M29.357,32.627c0.768,2.083,1.241,3.796,1.457,5.062c0.475-0.314,0.934-0.65,1.375-1.007
			c-0.335-1.621-0.953-3.496-1.725-5.442c-0.031-0.016-0.062-0.03-0.094-0.046C30.042,31.685,29.704,32.162,29.357,32.627z"/>
		<path fill="#00BCB2" d="M16.368,10.174c2.221,2.664,4.804,6.343,7.395,10.831c0.134,0.23,0.251,0.449,0.381,0.678
			c0.828,0.49,1.694,1.011,2.58,1.552c-0.573-1.085-1.134-2.098-1.647-2.988c-2.265-3.922-4.996-7.991-7.586-11.091
			C17.112,9.479,16.738,9.818,16.368,10.174z"/>
		<path fill="#00BCB2" d="M24.809,35.505c-2.222-2.664-4.804-6.344-7.396-10.834c-0.155-0.27-0.303-0.537-0.454-0.807
			c-0.88-0.521-1.74-1.038-2.58-1.551c0.547,1.031,1.117,2.071,1.721,3.116c2.265,3.923,4.996,7.993,7.586,11.094
			C24.064,36.2,24.438,35.86,24.809,35.505z"/>
		<path fill="#00BCB2" d="M13.295,17.404c-0.085,0.74-0.15,1.504-0.2,2.29c0.761,0.478,1.556,0.97,2.393,1.479
			c-0.63-1.203-1.218-2.388-1.754-3.539C13.585,17.556,13.441,17.48,13.295,17.404z"/>
		<path fill="#00BCB2" d="M10.539,5.433c0.041-0.022,0.098-0.034,0.169-0.034c0.06,0,0.133,0.022,0.199,0.034
			c0.584-0.32,1.186-0.595,1.804-0.824c-0.74-0.459-1.42-0.727-2.003-0.727c-0.341,0-0.652,0.08-0.927,0.237
			c-0.76,0.439-1.102,1.38-1.052,2.812c0.507-0.42,1.039-0.811,1.606-1.157C10.396,5.581,10.471,5.472,10.539,5.433z"/>
		<path fill="#00BCB2" d="M14.48,5.968c-0.533,0.188-1.055,0.395-1.563,0.627c0.388,0.32,0.804,0.699,1.249,1.143
			c0.219-0.501,0.451-0.971,0.692-1.418C14.731,6.2,14.605,6.081,14.48,5.968z"/>
		<path fill="#00BCB2" d="M25.804,36.658c-0.371,0.353-0.746,0.691-1.125,1.015c0.179,0.199,0.354,0.379,0.529,0.566
			c0.233-0.462,0.454-0.97,0.668-1.5C25.853,36.713,25.828,36.686,25.804,36.658z"/>
		<path fill="#00BCB2" d="M29.547,29.048c-0.062-0.143-0.126-0.284-0.189-0.427c-0.012,0.104-0.021,0.21-0.033,0.312
			C29.397,28.972,29.473,29.011,29.547,29.048z"/>
		<path fill="#00BCB2" d="M26.699,39.713c0.533-0.187,1.055-0.395,1.563-0.626c-0.39-0.322-0.808-0.703-1.255-1.148
			c-0.22,0.5-0.452,0.971-0.693,1.417C26.443,39.478,26.572,39.599,26.699,39.713z"/>
		<path fill="#00BCB2" d="M15.373,9.021c0.371-0.353,0.746-0.691,1.125-1.015c-0.18-0.2-0.355-0.381-0.533-0.569
			c-0.232,0.462-0.453,0.97-0.667,1.499C15.322,8.964,15.348,8.992,15.373,9.021z"/>
		<path fill="#00BCB2" d="M26.699,39.713c0.099,0.089,0.194,0.167,0.292,0.251c0.56-0.157,1.103-0.357,1.633-0.593
			c-0.118-0.09-0.237-0.182-0.361-0.284C27.754,39.318,27.232,39.526,26.699,39.713z"/>
		<path fill="#00BCB2" d="M30.814,37.689c0.023,0.14,0.039,0.263,0.057,0.392c0.484-0.353,0.946-0.731,1.37-1.147
			c-0.016-0.082-0.035-0.167-0.052-0.251C31.748,37.039,31.289,37.375,30.814,37.689z"/>
		<path fill="#00BCB2" d="M14.48,5.968c-0.102-0.091-0.199-0.171-0.299-0.257c-0.56,0.157-1.103,0.358-1.633,0.594
			c0.12,0.092,0.241,0.185,0.368,0.29C13.426,6.362,13.947,6.155,14.48,5.968z"/>
		<path fill="#00BCB2" d="M10.357,7.996c-0.021-0.141-0.043-0.276-0.059-0.403C9.822,7.939,9.37,8.317,8.948,8.729
			c0.017,0.089,0.03,0.171,0.049,0.263C9.434,8.639,9.889,8.308,10.357,7.996z"/>
		<path fill="#00A7E3" d="M28.086,25.908c0.435,0.888,0.863,1.798,1.271,2.713c0.07-0.591,0.133-1.189,0.182-1.802
			c-0.467-0.3-0.953-0.607-1.453-0.921C28.086,25.901,28.086,25.905,28.086,25.908z"/>
		<path fill="#00A7E3" d="M15.025,39.639c0.063,0.112,0.128,0.224,0.192,0.331c0.297,0.09,0.603,0.156,0.905,0.231
			C15.754,40.025,15.388,39.839,15.025,39.639z"/>
		<path fill="#00A7E3" d="M13.015,21.474c-0.505-0.314-1.001-0.625-1.485-0.933c-0.034,0.753-0.054,1.518-0.054,2.295
			c0,5.564,0.893,10.545,2.36,14.279c0.739,0.528,1.505,0.997,2.289,1.408c-1.82-3.426-3.139-8.906-3.139-15.688
			C12.986,22.372,13.003,21.925,13.015,21.474z"/>
		<path fill="#00A7E3" d="M13.513,15.771c0.173-1.129,0.384-2.196,0.63-3.195c-0.575,0.691-1.134,1.417-1.668,2.181
			c0.083,0.202,0.17,0.407,0.257,0.611C12.99,15.501,13.251,15.636,13.513,15.771z"/>
		<path fill="#00A7E3" d="M19.562,3.46c0.343-0.133,0.686-0.223,1.026-0.223c0.344,0,0.689,0.091,1.034,0.226
			c0.892,0.048,1.771,0.142,2.627,0.301c0.077-0.019,0.154-0.042,0.231-0.06c-1.176-1.258-2.49-1.978-3.893-1.978
			c-1.424,0-2.757,0.742-3.947,2.038c0.113-0.008,0.227-0.012,0.339-0.017C17.822,3.595,18.686,3.505,19.562,3.46z"/>
		<path fill="#00A7E3" d="M14.858,6.319c0.361,0.343,0.731,0.717,1.106,1.117c0.433-0.857,0.898-1.582,1.381-2.189
			c-0.133,0.004-0.262,0.018-0.394,0.024c-0.591,0.118-1.171,0.265-1.739,0.437C15.094,5.908,14.973,6.106,14.858,6.319z"/>
		<path fill="#00A7E3" d="M15.199,9.192c0.033-0.085,0.064-0.174,0.099-0.257c-0.393-0.435-0.772-0.84-1.132-1.198
			c-0.531,1.212-0.99,2.587-1.378,4.079C13.562,10.875,14.367,9.997,15.199,9.192z"/>
		<path fill="#00A7E3" d="M26.314,39.355c-0.361-0.343-0.73-0.717-1.106-1.116c-0.433,0.857-0.898,1.581-1.382,2.188
			c0.15-0.004,0.297-0.02,0.445-0.027c0.571-0.115,1.133-0.259,1.684-0.426C26.076,39.771,26.198,39.571,26.314,39.355z"/>
		<path fill="#00A7E3" d="M25.971,36.493c-0.032,0.081-0.062,0.167-0.095,0.246c0.392,0.436,0.772,0.841,1.132,1.199
			c0.53-1.209,0.988-2.581,1.376-4.069C27.609,34.811,26.804,35.688,25.971,36.493z"/>
		<path fill="#00A7E3" d="M21.603,42.214c-0.339,0.131-0.677,0.219-1.015,0.219s-0.677-0.089-1.016-0.219
			c-0.9-0.045-1.788-0.14-2.652-0.3c-0.073,0.019-0.146,0.04-0.22,0.057c1.175,1.255,2.487,1.973,3.888,1.973
			c1.423,0,2.754-0.74,3.943-2.034c-0.11,0.008-0.223,0.012-0.333,0.017C23.351,42.08,22.483,42.171,21.603,42.214z"/>
		<path fill="#00A7E3" d="M26.152,6.036c-0.062-0.112-0.127-0.224-0.192-0.332c-0.297-0.09-0.604-0.156-0.906-0.231
			C25.424,5.649,25.791,5.836,26.152,6.036z"/>
		<path fill="#00A7E3" d="M27.675,29.827c-0.177,1.162-0.393,2.258-0.646,3.282c0.575-0.69,1.134-1.415,1.668-2.18
			c-0.098-0.241-0.191-0.478-0.297-0.727C28.16,30.08,27.917,29.953,27.675,29.827z"/>
		<path fill="#00A7E3" d="M28.162,24.12c0.496,0.308,0.994,0.619,1.49,0.934c0.031-0.729,0.048-1.468,0.048-2.218
			c0-5.563-0.892-10.543-2.359-14.276c-0.739-0.529-1.504-0.998-2.287-1.408c1.818,3.427,3.136,8.905,3.136,15.685
			C28.189,23.273,28.174,23.693,28.162,24.12z"/>
		<path fill="#00A7E3" d="M11.816,17.068c-0.066,0.561-0.127,1.126-0.174,1.704c0.442,0.285,0.902,0.576,1.376,0.874
			C12.59,18.771,12.189,17.91,11.816,17.068z"/>
		<path fill="#00A7E3" d="M16.952,5.271c-0.54,0.029-1.071,0.09-1.591,0.183c-0.051,0.081-0.098,0.171-0.148,0.254
			C15.781,5.536,16.361,5.39,16.952,5.271z"/>
		<path fill="#00A7E3" d="M25.96,5.704c-0.132-0.22-0.265-0.436-0.401-0.639c-0.327,0.048-0.657,0.111-0.99,0.192
			c0.162,0.071,0.324,0.139,0.485,0.215C25.356,5.548,25.663,5.614,25.96,5.704z"/>
		<path fill="#00A7E3" d="M24.271,40.399c0.523-0.03,1.037-0.089,1.541-0.18c0.049-0.078,0.095-0.165,0.143-0.246
			C25.404,40.141,24.843,40.284,24.271,40.399z"/>
		<path fill="#00A7E3" d="M15.218,39.97c0.132,0.221,0.265,0.437,0.403,0.641c0.327-0.049,0.657-0.111,0.99-0.193
			c-0.163-0.071-0.326-0.139-0.488-0.216C15.82,40.126,15.515,40.06,15.218,39.97z"/>
		<path fill="#00A7E3" d="M24.249,3.764c-0.856-0.159-1.735-0.253-2.627-0.301c0.404,0.158,0.806,0.399,1.2,0.732
			C23.301,4.023,23.776,3.879,24.249,3.764z"/>
		<path fill="#00A7E3" d="M22.241,41.895c-0.212,0.132-0.425,0.238-0.639,0.319c0.881-0.043,1.748-0.134,2.596-0.288
			c-0.233,0.011-0.467,0.021-0.703,0.021C23.077,41.947,22.659,41.929,22.241,41.895z"/>
		<path fill="#00A7E3" d="M18.93,3.778c0.21-0.131,0.42-0.236,0.632-0.318c-0.876,0.045-1.739,0.135-2.582,0.288
			c0.232-0.011,0.466-0.021,0.701-0.021C18.097,3.727,18.514,3.744,18.93,3.778z"/>
		<path fill="#00A7E3" d="M16.92,41.914c0.864,0.16,1.752,0.255,2.652,0.3c-0.408-0.156-0.814-0.399-1.214-0.734
			C17.876,41.653,17.396,41.798,16.92,41.914z"/>
		<path fill="#00BCB2" d="M27.89,28.192c0.49,0.257,0.969,0.504,1.435,0.741c0.013-0.103,0.021-0.209,0.033-0.312
			c-0.408-0.915-0.837-1.825-1.271-2.713C28.037,26.691,27.973,27.453,27.89,28.192z"/>
		<path fill="#00A7E3" d="M25.876,36.739c-0.214,0.53-0.435,1.038-0.668,1.5c0.376,0.399,0.745,0.773,1.106,1.116
			c0.241-0.446,0.474-0.917,0.693-1.417C26.648,37.58,26.268,37.175,25.876,36.739z"/>
		<path fill="#00BCB2" d="M11.86,16.663c-0.017,0.133-0.028,0.271-0.044,0.405c0.373,0.842,0.773,1.702,1.202,2.578
			c0.024,0.016,0.051,0.032,0.076,0.048c0.05-0.786,0.115-1.55,0.2-2.29C12.804,17.147,12.326,16.9,11.86,16.663z"/>
		<path fill="#00A7E3" d="M15.298,8.936c0.214-0.529,0.435-1.037,0.667-1.499c-0.375-0.4-0.745-0.774-1.106-1.117
			c-0.241,0.447-0.474,0.917-0.692,1.418C14.525,8.096,14.905,8.501,15.298,8.936z"/>
		<path fill="#00BCB2" d="M28.4,30.203c0.105,0.249,0.199,0.485,0.297,0.727c0.099-0.14,0.193-0.286,0.289-0.429
			C28.791,30.401,28.598,30.305,28.4,30.203z"/>
		<path fill="#00BCB2" d="M12.731,15.368c-0.087-0.204-0.174-0.409-0.257-0.611c-0.081,0.117-0.16,0.24-0.24,0.359
			C12.4,15.2,12.564,15.282,12.731,15.368z"/>
		<path fill="#FFD300" d="M9.756,19.4c-0.444-0.29-0.877-0.575-1.296-0.855c-1.234,2.503-2.125,5.06-2.644,7.552
			c0.312,0.938,0.68,1.865,1.124,2.774C7.25,25.819,8.213,22.572,9.756,19.4z"/>
		<path fill="#FFD300" d="M28.384,33.869c0.331-0.402,0.655-0.816,0.974-1.242c-0.137-0.37-0.28-0.749-0.436-1.143
			C28.766,32.312,28.583,33.104,28.384,33.869z"/>
		<path fill="#FFD300" d="M30.288,28.438c-0.148,0.257-0.306,0.504-0.459,0.755c0.476,0.24,0.933,0.468,1.38,0.688
			c0.137-0.225,0.277-0.444,0.41-0.674c0.146-0.252,0.27-0.506,0.407-0.759c-0.409-0.274-0.841-0.56-1.285-0.85
			C30.59,27.878,30.449,28.158,30.288,28.438z"/>
		<path fill="#FFD300" d="M25.804,36.658c0.056-0.054,0.11-0.111,0.167-0.165c0.396-1.017,0.752-2.146,1.059-3.384
			c-0.717,0.858-1.457,1.663-2.221,2.396C25.149,35.914,25.481,36.299,25.804,36.658z"/>
		<path fill="#FFD300" d="M12.365,40.485c-0.562-0.148-1.095-0.363-1.59-0.649c-0.385-0.222-0.733-0.495-1.065-0.791
			c-1.37-0.89-2.612-1.949-3.716-3.136c0.764,2.362,2.127,4.169,4.013,5.258c1.257,0.727,2.687,1.095,4.249,1.095
			c0.797,0,1.615-0.104,2.444-0.291c-0.032-0.034-0.063-0.069-0.095-0.104C15.122,41.567,13.707,41.091,12.365,40.485z"/>
		<path fill="#FFD300" d="M31.455,26.211c0.438,0.286,0.871,0.57,1.296,0.854c1.233-2.522,2.101-5.065,2.599-7.504
			c-0.304-0.916-0.663-1.827-1.1-2.726C33.939,19.774,33.008,22.998,31.455,26.211z"/>
		<path fill="#FFD300" d="M12.788,11.816c-0.333,0.405-0.658,0.821-0.977,1.249c0.139,0.373,0.284,0.753,0.438,1.14
			C12.407,13.376,12.589,12.583,12.788,11.816z"/>
		<path fill="#FFD300" d="M28.752,5.171c0.586,0.147,1.139,0.37,1.652,0.667c0.402,0.231,0.763,0.516,1.104,0.824
			c1.334,0.87,2.542,1.901,3.622,3.053c-0.749-2.295-2.068-4.118-3.957-5.208c-1.257-0.726-2.686-1.094-4.247-1.094
			c-0.798,0-1.616,0.104-2.445,0.291c0.033,0.036,0.066,0.073,0.099,0.109C26.039,4.11,27.43,4.579,28.752,5.171z"/>
		<path fill="#FFD300" d="M17.49,9.155c1.594-1.363,3.249-2.426,4.889-3.146c-0.748-0.245-1.503-0.436-2.263-0.566
			C18.893,6.139,17.678,7,16.498,8.006C16.825,8.371,17.156,8.755,17.49,9.155z"/>
		<path fill="#FFD300" d="M10.893,17.239c0.16-0.278,0.33-0.546,0.497-0.816c-0.477-0.241-0.934-0.469-1.38-0.688
			C9.86,15.98,9.706,16.22,9.562,16.471C9.43,16.7,9.313,16.934,9.188,17.165c0.408,0.274,0.841,0.56,1.285,0.851
			C10.614,17.757,10.744,17.496,10.893,17.239z"/>
		<path fill="#FFD300" d="M23.686,36.523c-1.592,1.362-3.246,2.423-4.884,3.142c0.747,0.246,1.503,0.436,2.263,0.566
			c1.223-0.694,2.436-1.555,3.614-2.559C24.352,37.308,24.02,36.923,23.686,36.523z"/>
		<path fill="#FFD300" d="M34.79,14.636c0.363,0.629,0.689,1.267,0.988,1.91c0.105-1.285,0.108-2.524-0.009-3.689
			c-0.58-0.847-1.244-1.633-1.959-2.368c0.312,1.04,0.484,2.198,0.537,3.432C34.496,14.157,34.649,14.392,34.79,14.636z"/>
		<path fill="#FFD300" d="M15.373,9.021c-0.059,0.055-0.115,0.115-0.174,0.172c-0.395,1.017-0.751,2.146-1.057,3.384
			c0.718-0.86,1.461-1.668,2.226-2.402C16.027,9.765,15.695,9.38,15.373,9.021z"/>
		<path fill="#FFD300" d="M6.386,31.036c-0.372-0.645-0.704-1.303-1.012-1.969c-0.06,0.688-0.097,1.37-0.093,2.036
			c0.004,0.568,0.035,1.118,0.085,1.651c0.6,0.881,1.283,1.7,2.027,2.462c-0.309-1.021-0.483-2.175-0.541-3.425
			C6.695,31.542,6.535,31.294,6.386,31.036z"/>
		<path fill="#8FCB30" d="M31.508,6.662c1.06,0.959,1.832,2.261,2.303,3.826c0.715,0.735,1.379,1.521,1.959,2.368
			c-0.111-1.119-0.324-2.173-0.64-3.142C34.05,8.563,32.842,7.532,31.508,6.662z"/>
		<path fill="#FFD300" d="M9.71,39.045c-1.049-0.938-1.834-2.229-2.316-3.828c-0.744-0.762-1.428-1.581-2.027-2.462
			c0.108,1.136,0.317,2.192,0.628,3.154C7.098,37.096,8.34,38.155,9.71,39.045z"/>
		<path fill="#FFD300" d="M14.256,40.725c-0.664,0-1.295-0.082-1.891-0.239c1.342,0.605,2.757,1.082,4.24,1.381
			c-0.341-0.375-0.67-0.79-0.984-1.256C15.16,40.678,14.703,40.725,14.256,40.725z"/>
		<path fill="#FFD300" d="M22.822,4.195c-0.19,0.069-0.381,0.134-0.572,0.212c0.404,0.117,0.806,0.25,1.205,0.397
			C23.246,4.576,23.035,4.375,22.822,4.195z"/>
		<path fill="#FFD300" d="M18.358,41.479c0.19-0.069,0.381-0.134,0.572-0.211c-0.404-0.118-0.806-0.251-1.205-0.398
			C17.934,41.099,18.145,41.3,18.358,41.479z"/>
		<path fill="#FFD300" d="M26.926,4.95c0.639,0,1.249,0.074,1.826,0.221c-1.322-0.592-2.713-1.061-4.173-1.357
			c0.339,0.375,0.667,0.787,0.979,1.252C26.021,4.997,26.479,4.95,26.926,4.95z"/>
		<path fill="#FFD300" d="M12.25,14.205c-0.154-0.387-0.3-0.767-0.438-1.14c-0.329,0.44-0.649,0.893-0.962,1.357
			c0.412,0.203,0.828,0.411,1.253,0.626C12.15,14.765,12.198,14.483,12.25,14.205z"/>
		<path fill="#FFD300" d="M17.49,9.155c-0.334-0.4-0.665-0.784-0.992-1.149c-0.379,0.323-0.754,0.662-1.125,1.015
			c0.322,0.359,0.654,0.744,0.995,1.153C16.738,9.818,17.112,9.479,17.49,9.155z"/>
		<path fill="#FFD300" d="M23.686,36.523c0.334,0.399,0.666,0.784,0.993,1.149c0.379-0.323,0.754-0.662,1.125-1.015
			c-0.322-0.359-0.654-0.744-0.995-1.153C24.438,35.86,24.064,36.2,23.686,36.523z"/>
		<path fill="#FFD300" d="M28.922,31.484c0.155,0.394,0.299,0.772,0.436,1.143c0.347-0.465,0.685-0.942,1.014-1.433
			c-0.423-0.209-0.852-0.423-1.287-0.644C29.032,30.865,28.979,31.178,28.922,31.484z"/>
		<path fill="#00A7E3" d="M16.605,41.866c0.031,0.035,0.062,0.07,0.095,0.104c0.073-0.017,0.146-0.038,0.22-0.057
			C16.816,41.896,16.709,41.888,16.605,41.866z"/>
		<path fill="#FFD300" d="M28.697,30.93c-0.534,0.765-1.093,1.489-1.668,2.18c-0.307,1.237-0.662,2.367-1.059,3.384
			c0.833-0.805,1.639-1.683,2.413-2.624c0.199-0.765,0.382-1.557,0.538-2.385C28.85,31.303,28.773,31.116,28.697,30.93z"/>
		<path fill="#FFD300" d="M24.579,3.813c-0.032-0.036-0.065-0.073-0.099-0.109c-0.077,0.018-0.154,0.041-0.231,0.06
			C24.358,3.784,24.471,3.792,24.579,3.813z"/>
		<path fill="#FFD300" d="M12.475,14.757c0.534-0.764,1.093-1.489,1.668-2.181c0.306-1.237,0.662-2.367,1.057-3.384
			c-0.832,0.805-1.638,1.683-2.411,2.624c-0.199,0.767-0.381,1.56-0.538,2.389C12.322,14.388,12.399,14.572,12.475,14.757z"/>
		<path fill="#00A7E3" d="M17.726,40.87c-0.374-0.138-0.746-0.289-1.114-0.453c-0.333,0.082-0.663,0.145-0.99,0.193
			c0.314,0.466,0.644,0.881,0.984,1.256c0.104,0.021,0.211,0.029,0.314,0.048c0.477-0.116,0.956-0.261,1.438-0.435
			C18.145,41.3,17.934,41.099,17.726,40.87z"/>
		<path fill="#FFD300" d="M23.455,4.805c0.374,0.138,0.745,0.29,1.113,0.453c0.333-0.081,0.663-0.145,0.99-0.192
			c-0.312-0.465-0.641-0.877-0.979-1.252c-0.108-0.021-0.221-0.029-0.33-0.05c-0.473,0.115-0.948,0.26-1.427,0.432
			C23.035,4.375,23.246,4.576,23.455,4.805z"/>
		<path fill="#FFD300" d="M12.475,14.757c-0.075-0.185-0.152-0.369-0.225-0.552c-0.052,0.278-0.1,0.56-0.147,0.844
			c0.044,0.022,0.088,0.045,0.132,0.067C12.314,14.997,12.394,14.874,12.475,14.757z"/>
		<path fill="#FFD300" d="M28.697,30.93c0.076,0.187,0.152,0.373,0.225,0.555c0.058-0.307,0.11-0.619,0.162-0.934
			c-0.032-0.017-0.064-0.033-0.098-0.05C28.891,30.644,28.796,30.79,28.697,30.93z"/>
		<path fill="#F44A98" d="M8.729,6.931C7.963,7.566,7.266,8.278,6.647,9.068C7.302,8.43,8.014,7.852,8.754,7.307
			C8.744,7.179,8.733,7.052,8.729,6.931z"/>
		<path fill="#F44A98" d="M32.456,38.73c0.754-0.63,1.438-1.326,2.041-2.096c-0.642,0.623-1.337,1.189-2.061,1.723
			C32.446,38.485,32.452,38.608,32.456,38.73z"/>
		<path fill="#F44A98" d="M7.685,30.286c-0.269-0.465-0.511-0.938-0.744-1.415c-0.076,0.753-0.127,1.498-0.122,2.222
			c0.002,0.241,0.023,0.466,0.034,0.699c2.114,3.367,4.979,6.078,8.173,7.847c-0.43-0.758-0.826-1.602-1.189-2.523
			C11.423,35.387,9.285,33.06,7.685,30.286z"/>
		<path fill="#F44A98" d="M25.054,7.151c-0.346-0.65-0.706-1.24-1.081-1.736c-0.528,0.158-1.061,0.36-1.594,0.595
			C23.287,6.309,24.182,6.693,25.054,7.151z"/>
		<path fill="#F44A98" d="M35.451,31.843c0.257,0.108,0.502,0.21,0.734,0.304c0.105-0.168,0.215-0.333,0.314-0.505
			c-0.247-0.192-0.51-0.394-0.797-0.609C35.621,31.304,35.547,31.579,35.451,31.843z"/>
		<path fill="#F44A98" d="M23.495,40.447c-0.81,0-1.622-0.077-2.431-0.216c-0.321,0.182-0.643,0.351-0.964,0.51
			c0.149,0.004,0.296,0.023,0.446,0.023l0.046,0.75v-0.75c1.091,0,2.155-0.111,3.195-0.292c0.013-0.017,0.025-0.03,0.038-0.046
			C23.715,40.43,23.607,40.447,23.495,40.447z"/>
		<path fill="#F44A98" d="M5.374,29.067c0.084-0.974,0.233-1.966,0.442-2.971c-1.029-3.098-1.344-6.307-0.85-9.349
			c0.031-0.188,0.08-0.366,0.117-0.552C4.68,15.9,4.316,15.627,3.986,15.37c-0.185,0.392-0.352,0.791-0.507,1.197
			C2.827,20.661,3.503,25.025,5.374,29.067z"/>
		<path fill="#F44A98" d="M35.778,16.546c-0.081,0.98-0.218,1.986-0.429,3.015c1.112,3.355,1.345,6.764,0.755,9.839
			c0.394,0.29,0.768,0.572,1.117,0.846c0.164-0.352,0.312-0.711,0.452-1.074C38.324,25.188,37.729,20.744,35.778,16.546z"/>
		<path fill="#F44A98" d="M16.125,38.523c0.346,0.651,0.706,1.24,1.083,1.736c0.527-0.157,1.06-0.36,1.594-0.595
			C17.893,39.366,16.998,38.981,16.125,38.523z"/>
		<path fill="#F44A98" d="M16.604,3.806c0.012-0.014,0.024-0.027,0.036-0.041c-1.369,0.094-2.682,0.379-3.93,0.844
			c0.128,0.079,0.258,0.164,0.391,0.256C14.223,4.411,15.392,4.05,16.604,3.806z"/>
		<path fill="#F44A98" d="M33.491,15.386c0.276,0.478,0.522,0.962,0.759,1.449c0.107-1.012,0.139-1.984,0.098-2.915
			c-2.115-3.384-4.988-6.108-8.195-7.884c0.43,0.758,0.826,1.602,1.188,2.523C29.754,10.286,31.891,12.613,33.491,15.386z"/>
		<path fill="#F44A98" d="M30.263,40.245c0.096-0.052,0.192-0.099,0.287-0.153c0.109-0.063,0.206-0.142,0.312-0.207
			c0.045-0.141,0.075-0.315,0.087-0.529c-0.406,0.247-0.816,0.486-1.242,0.704C29.913,40.157,30.097,40.216,30.263,40.245z"/>
		<path fill="#F44A98" d="M17.681,5.227c0.812,0,1.626,0.077,2.436,0.217c0.321-0.183,0.644-0.352,0.965-0.511
			c-0.151-0.004-0.299-0.023-0.451-0.023c-1.111,0-2.194,0.113-3.251,0.299c-0.011,0.014-0.021,0.025-0.033,0.039
			C17.459,5.245,17.566,5.227,17.681,5.227z"/>
		<path fill="#F44A98" d="M24.566,41.87c-0.012,0.014-0.023,0.026-0.035,0.039c1.369-0.093,2.682-0.378,3.93-0.842
			c-0.129-0.079-0.258-0.164-0.39-0.256C26.949,41.264,25.78,41.626,24.566,41.87z"/>
		<path fill="#F44A98" d="M7.757,10.09c-0.664,0.643-1.266,1.343-1.824,2.077c0.142,0.059,0.274,0.109,0.421,0.172
			C6.751,11.528,7.226,10.783,7.757,10.09z"/>
		<path fill="#F44A98" d="M33.397,35.61c0.69-0.666,1.315-1.394,1.893-2.158c-0.147-0.061-0.287-0.115-0.44-0.181
			C34.444,34.108,33.953,34.886,33.397,35.61z"/>
		<path fill="#F44A98" d="M5.746,13.765c-0.25-0.105-0.488-0.204-0.716-0.296c-0.104,0.167-0.214,0.332-0.313,0.503
			c0.24,0.188,0.496,0.384,0.774,0.592C5.573,14.296,5.65,14.024,5.746,13.765z"/>
		<path fill="#F44A98" d="M10.907,5.433c-0.093,0.051-0.188,0.096-0.28,0.149c-0.102,0.059-0.191,0.131-0.291,0.191
			c-0.041,0.134-0.073,0.31-0.09,0.534c0.398-0.241,0.801-0.477,1.219-0.691C11.258,5.52,11.073,5.46,10.907,5.433z"/>
		<path fill="#F44A98" d="M35.29,33.452c-0.577,0.765-1.202,1.492-1.893,2.158c-0.358,0.466-0.737,0.912-1.156,1.323
			c0.096,0.504,0.162,0.979,0.195,1.424c0.724-0.533,1.419-1.1,2.061-1.723c0.676-0.863,1.255-1.805,1.733-2.812
			C35.933,33.711,35.619,33.586,35.29,33.452z"/>
		<path fill="#F44A98" d="M5.933,12.167c0.559-0.734,1.16-1.435,1.824-2.077c0.37-0.481,0.761-0.941,1.191-1.361
			C8.848,8.21,8.787,7.741,8.754,7.307C8.014,7.852,7.302,8.43,6.647,9.068c-0.649,0.83-1.215,1.736-1.687,2.716
			C5.268,11.9,5.593,12.028,5.933,12.167z"/>
		<path fill="#F44A98" d="M21.081,4.933c0.39-0.192,0.779-0.368,1.169-0.525c-1.096-0.32-2.207-0.538-3.32-0.629
			c-0.529,0.33-1.049,0.807-1.551,1.43c1.057-0.186,2.14-0.299,3.251-0.299C20.782,4.909,20.93,4.929,21.081,4.933z"/>
		<path fill="#F44A98" d="M15.361,5.454c0.391-0.626,0.809-1.17,1.243-1.648c-1.213,0.244-2.382,0.605-3.503,1.059
			c0.348,0.241,0.709,0.527,1.08,0.847C14.566,5.603,14.963,5.525,15.361,5.454z"/>
		<path fill="#F44A98" d="M30.871,38.081c-0.345,0.252-0.696,0.495-1.071,0.712c-0.381,0.22-0.777,0.401-1.176,0.578
			c0.402,0.307,0.766,0.539,1.083,0.688c0.426-0.218,0.836-0.457,1.242-0.704C30.967,39.02,30.941,38.593,30.871,38.081z"/>
		<path fill="#F44A98" d="M36.5,31.642c-0.1,0.172-0.209,0.337-0.314,0.505c0.227,0.092,0.443,0.177,0.646,0.254
			c0.047-0.13,0.082-0.265,0.127-0.396C36.816,31.89,36.66,31.767,36.5,31.642z"/>
		<path fill="#F44A98" d="M5.03,13.469c-0.238-0.096-0.464-0.185-0.677-0.265c-0.046,0.124-0.08,0.256-0.123,0.382
			c0.151,0.123,0.315,0.253,0.486,0.386C4.816,13.801,4.926,13.636,5.03,13.469z"/>
		<path fill="#F44A98" d="M3.764,15.2c-0.102,0.43-0.205,0.86-0.277,1.308c-0.003,0.02-0.004,0.04-0.007,0.06
			c0.155-0.406,0.322-0.806,0.507-1.197C3.913,15.314,3.834,15.254,3.764,15.2z"/>
		<path fill="#F44A98" d="M25.812,40.22c-0.393,0.627-0.811,1.171-1.246,1.65c1.214-0.244,2.383-0.606,3.505-1.059
			c-0.348-0.242-0.709-0.527-1.08-0.848C26.605,40.072,26.211,40.149,25.812,40.22z"/>
		<path fill="#F44A98" d="M37.416,30.397c0.096-0.405,0.19-0.811,0.258-1.227c-0.141,0.363-0.288,0.723-0.452,1.074
			C37.287,30.296,37.354,30.347,37.416,30.397z"/>
		<path fill="#F44A98" d="M10.299,7.593c0.348-0.253,0.703-0.495,1.078-0.712c0.38-0.22,0.774-0.4,1.172-0.576
			c-0.403-0.308-0.767-0.539-1.084-0.688c-0.418,0.215-0.82,0.45-1.219,0.691C10.223,6.629,10.231,7.049,10.299,7.593z"/>
		<path fill="#F44A98" d="M20.593,41.515l-0.046-0.75c-0.15,0-0.297-0.02-0.446-0.023c-0.39,0.193-0.78,0.369-1.17,0.527
			c1.093,0.318,2.2,0.535,3.311,0.626c0.527-0.327,1.047-0.803,1.547-1.422c-1.04,0.181-2.104,0.292-3.195,0.292V41.515z"/>
		<path fill="#F44A98" d="M29.707,40.06c-0.532,0.273-1.076,0.526-1.636,0.752c0.132,0.092,0.261,0.177,0.39,0.256
			c0.617-0.229,1.219-0.503,1.802-0.822C30.097,40.216,29.913,40.157,29.707,40.06z"/>
		<path fill="#00BCB2" d="M30.949,39.355c-0.012,0.214-0.042,0.389-0.087,0.529c0.565-0.348,1.094-0.736,1.594-1.154
			c-0.004-0.122-0.01-0.245-0.02-0.373C31.957,38.712,31.461,39.045,30.949,39.355z"/>
		<path fill="#00BCB2" d="M10.246,6.308c0.017-0.225,0.049-0.4,0.09-0.534c-0.567,0.347-1.1,0.737-1.606,1.157
			c0.004,0.121,0.015,0.248,0.024,0.376C9.235,6.952,9.732,6.619,10.246,6.308z"/>
		<path fill="#F44A98" d="M11.465,5.616c0.532-0.273,1.076-0.526,1.637-0.752c-0.133-0.092-0.263-0.177-0.391-0.256
			c-0.618,0.229-1.22,0.504-1.804,0.824C11.073,5.46,11.258,5.52,11.465,5.616z"/>
		<path fill="#00BCB2" d="M30.871,38.081c0.07,0.512,0.096,0.938,0.078,1.274c0.512-0.311,1.008-0.644,1.487-0.998
			c-0.033-0.444-0.1-0.92-0.195-1.424C31.817,37.35,31.355,37.729,30.871,38.081z"/>
		<path fill="#F44A98" d="M26.991,39.964c0.371,0.32,0.732,0.605,1.08,0.848c0.56-0.226,1.104-0.479,1.636-0.752
			c-0.317-0.149-0.681-0.382-1.083-0.688C28.094,39.606,27.551,39.807,26.991,39.964z"/>
		<path fill="#00BCB2" d="M10.299,7.593c-0.067-0.544-0.076-0.964-0.053-1.285C9.732,6.619,9.235,6.952,8.754,7.307
			C8.787,7.741,8.848,8.21,8.948,8.729C9.37,8.317,9.822,7.939,10.299,7.593z"/>
		<path fill="#F44A98" d="M14.182,5.711c-0.371-0.319-0.732-0.605-1.08-0.847c-0.561,0.226-1.104,0.479-1.637,0.752
			c0.317,0.149,0.681,0.381,1.084,0.688C13.079,6.069,13.622,5.868,14.182,5.711z"/>
		<path fill="#00A7E3" d="M16.979,3.748c-0.112,0.005-0.226,0.009-0.339,0.017c-0.012,0.014-0.024,0.027-0.036,0.041
			C16.728,3.78,16.855,3.771,16.979,3.748z"/>
		<path fill="#00A7E3" d="M17.379,5.208c-0.141,0.024-0.286,0.035-0.427,0.063c0.132-0.007,0.261-0.021,0.394-0.024
			C17.357,5.233,17.368,5.222,17.379,5.208z"/>
		<path fill="#F44A98" d="M23.788,40.473c0.159-0.028,0.324-0.042,0.483-0.073c-0.148,0.008-0.295,0.023-0.445,0.027
			C23.813,40.442,23.801,40.456,23.788,40.473z"/>
		<path fill="#F44A98" d="M24.198,41.926c0.11-0.005,0.223-0.009,0.333-0.017c0.012-0.013,0.023-0.025,0.035-0.039
			C24.445,41.895,24.32,41.903,24.198,41.926z"/>
		<path fill="#F44A98" d="M24.393,5.305c-0.14,0.036-0.279,0.068-0.42,0.11c0.375,0.496,0.735,1.086,1.081,1.736
			c0.783,0.41,1.548,0.879,2.287,1.408c-0.362-0.922-0.759-1.766-1.188-2.523c-0.361-0.2-0.729-0.387-1.099-0.563
			C24.832,5.418,24.617,5.351,24.393,5.305z"/>
		<path fill="#00A7E3" d="M16.787,40.37c0.141-0.036,0.28-0.068,0.421-0.11c-0.377-0.496-0.737-1.085-1.083-1.736
			c-0.784-0.411-1.55-0.88-2.289-1.408c0.363,0.922,0.76,1.766,1.189,2.523c0.362,0.2,0.729,0.387,1.098,0.562
			C16.346,40.256,16.562,40.323,16.787,40.37z"/>
		<path fill="#F44A98" d="M24.271,40.399c-0.159,0.031-0.324,0.045-0.483,0.073c-0.5,0.619-1.02,1.095-1.547,1.422
			c0.418,0.034,0.836,0.053,1.254,0.053c0.236,0,0.47-0.011,0.703-0.021c0.122-0.022,0.247-0.031,0.368-0.056
			c0.436-0.479,0.854-1.023,1.246-1.65C25.309,40.311,24.795,40.369,24.271,40.399z"/>
		<path fill="#00A7E3" d="M16.123,40.201c0.162,0.077,0.325,0.145,0.488,0.216c0.059-0.014,0.117-0.031,0.176-0.047
			C16.562,40.323,16.346,40.256,16.123,40.201z"/>
		<path fill="#00A7E3" d="M16.952,5.271c0.141-0.028,0.286-0.039,0.427-0.063c0.502-0.623,1.021-1.1,1.551-1.43
			c-0.416-0.034-0.833-0.052-1.249-0.052c-0.235,0-0.469,0.011-0.701,0.021c-0.124,0.022-0.252,0.032-0.375,0.058
			c-0.435,0.479-0.853,1.022-1.243,1.648C15.881,5.361,16.412,5.301,16.952,5.271z"/>
		<path fill="#F44A98" d="M25.054,5.473c-0.161-0.076-0.323-0.144-0.485-0.215c-0.058,0.015-0.117,0.031-0.176,0.047
			C24.617,5.351,24.832,5.418,25.054,5.473z"/>
		<path fill="#F44A98" d="M17.208,40.26c0.058,0.077,0.119,0.138,0.179,0.21c0.885,0.154,1.79,0.247,2.714,0.271
			c0.321-0.159,0.643-0.328,0.964-0.51c-0.76-0.131-1.516-0.32-2.263-0.566C18.268,39.899,17.735,40.103,17.208,40.26z"/>
		<path fill="#FFD300" d="M23.973,5.415c-0.059-0.077-0.12-0.137-0.18-0.211c-0.884-0.154-1.789-0.247-2.712-0.271
			c-0.321,0.159-0.644,0.328-0.965,0.511c0.76,0.131,1.515,0.321,2.263,0.566C22.912,5.775,23.444,5.573,23.973,5.415z"/>
		<path fill="#F44A98" d="M34.25,16.835c0.437,0.898,0.796,1.81,1.1,2.726c0.211-1.028,0.348-2.034,0.429-3.015
			c-0.299-0.644-0.625-1.281-0.988-1.91c-0.141-0.244-0.294-0.479-0.442-0.716C34.389,14.851,34.357,15.823,34.25,16.835z"/>
		<path fill="#FFD300" d="M6.94,28.871c-0.444-0.909-0.812-1.837-1.124-2.774c-0.209,1.005-0.358,1.997-0.442,2.971
			c0.308,0.666,0.64,1.324,1.012,1.969c0.149,0.258,0.31,0.506,0.467,0.756c-0.011-0.233-0.032-0.458-0.034-0.699
			C6.813,30.369,6.864,29.624,6.94,28.871z"/>
		<path fill="#F44A98" d="M17.387,40.47c0.111,0.14,0.225,0.275,0.339,0.4c0.399,0.147,0.801,0.28,1.205,0.398
			c0.39-0.158,0.78-0.334,1.17-0.527C19.177,40.717,18.271,40.624,17.387,40.47z"/>
		<path fill="#FFD300" d="M23.793,5.204c-0.111-0.139-0.225-0.274-0.338-0.399c-0.399-0.147-0.801-0.28-1.205-0.397
			c-0.39,0.157-0.779,0.333-1.169,0.525C22.004,4.957,22.909,5.05,23.793,5.204z"/>
		<path fill="#00A7E3" d="M16.787,40.37c0.197,0.041,0.4,0.065,0.6,0.1c-0.06-0.072-0.121-0.133-0.179-0.21
			C17.067,40.302,16.928,40.334,16.787,40.37z"/>
		<path fill="#FFD300" d="M24.393,5.305c-0.197-0.042-0.399-0.065-0.6-0.101c0.06,0.074,0.121,0.134,0.18,0.211
			C24.113,5.373,24.253,5.341,24.393,5.305z"/>
		<path fill="#FFD300" d="M24.393,5.305c0.059-0.016,0.118-0.032,0.176-0.047c-0.368-0.163-0.739-0.315-1.113-0.453
			c0.113,0.125,0.227,0.261,0.338,0.399C23.993,5.239,24.195,5.263,24.393,5.305z"/>
		<path fill="#00A7E3" d="M16.787,40.37c-0.059,0.016-0.117,0.033-0.176,0.047c0.368,0.164,0.74,0.315,1.114,0.453
			c-0.114-0.125-0.228-0.261-0.339-0.4C17.188,40.436,16.984,40.411,16.787,40.37z"/>
		<path fill="#0078A3" d="M21.215,21.768c1.564,0.903,3.029,1.772,4.4,2.605c-0.457-0.868-0.947-1.766-1.472-2.69
			c-0.756-0.448-1.479-0.872-2.152-1.261c-2.744-1.584-5.694-3.207-8.479-4.65c-0.053,0.342-0.108,0.679-0.153,1.032
			c0.125,0.276,0.243,0.549,0.374,0.83C16.003,18.827,18.519,20.211,21.215,21.768z"/>
		<path fill="#0078A3" d="M28.086,25.898c0.036-0.582,0.062-1.174,0.076-1.778c-0.481-0.3-0.963-0.596-1.438-0.886
			c0.448,0.848,0.904,1.74,1.354,2.659C28.081,25.895,28.084,25.896,28.086,25.898z"/>
		<path fill="#0078A3" d="M11.643,18.772c-0.402-0.258-0.792-0.51-1.17-0.757c-0.25,0.46-0.491,0.921-0.717,1.385
			c0.573,0.374,1.163,0.754,1.773,1.141C11.556,19.942,11.595,19.354,11.643,18.772z"/>
		<path fill="#0078A3" d="M20.009,23.851c-1.609-0.93-3.116-1.823-4.521-2.678c0.466,0.889,0.961,1.789,1.472,2.691
			c0.748,0.443,1.504,0.888,2.273,1.332c2.732,1.577,5.669,3.192,8.442,4.631c0.048-0.318,0.1-0.632,0.142-0.96
			c-0.137-0.306-0.287-0.624-0.434-0.939C25.142,26.747,22.662,25.382,20.009,23.851z"/>
		<path fill="#0078A3" d="M29.539,26.819c0.414,0.265,0.814,0.524,1.202,0.778c0.249-0.462,0.489-0.923,0.714-1.387
			c-0.594-0.386-1.196-0.773-1.803-1.157C29.626,25.651,29.585,26.237,29.539,26.819z"/>
		<path fill="#0078A3" d="M29.701,29.401c0.043-0.068,0.085-0.14,0.128-0.209c-0.093-0.047-0.189-0.098-0.282-0.145
			C29.599,29.166,29.65,29.284,29.701,29.401z"/>
		<path fill="#0078A3" d="M30.418,31.123c0.016,0.039,0.031,0.078,0.047,0.117c1.601,0.789,3.094,1.486,4.385,2.031
			c0.225-0.462,0.425-0.938,0.602-1.429c-1.184-0.503-2.608-1.159-4.242-1.963C30.951,30.302,30.689,30.717,30.418,31.123z"/>
		<path fill="#0078A3" d="M8.46,18.545c0.229-0.463,0.476-0.922,0.728-1.38c-1.469-0.984-2.701-1.857-3.696-2.602
			c-0.161,0.528-0.298,1.072-0.407,1.633c0.344,0.252,0.707,0.515,1.108,0.798C6.893,17.488,7.659,18.01,8.46,18.545z"/>
		<path fill="#0078A3" d="M3.377,12.861c0.067,0.021,0.147,0.05,0.22,0.074c0.276-0.455,0.565-0.899,0.877-1.329
			c-0.979-0.345-1.757-0.545-2.243-0.545c-0.626,0-0.923,0.285-1.062,0.525c-0.297,0.518-0.324,1.134,1.625,2.814
			c0.234-0.474,0.484-0.938,0.756-1.39C3.493,12.962,3.429,12.908,3.377,12.861z"/>
		<path fill="#0078A3" d="M10.761,14.556c-0.029-0.074-0.056-0.146-0.084-0.219c-1.577-0.775-3.05-1.462-4.323-1.998
			c-0.226,0.458-0.428,0.934-0.607,1.426c1.188,0.503,2.62,1.162,4.264,1.971C10.254,15.335,10.504,14.941,10.761,14.556z"/>
		<path fill="#0078A3" d="M32.026,28.447c1.458,0.978,2.685,1.845,3.677,2.585c0.16-0.531,0.294-1.075,0.401-1.633
			c-1.007-0.74-2.146-1.529-3.354-2.335C32.525,27.527,32.277,27.987,32.026,28.447z"/>
		<path fill="#0078A3" d="M38.412,31.218c-0.231,0.472-0.478,0.934-0.746,1.383c0.06,0.052,0.126,0.108,0.18,0.157
			c-0.07-0.022-0.153-0.052-0.229-0.077c-0.274,0.455-0.561,0.901-0.871,1.332c0.98,0.346,1.759,0.546,2.244,0.546
			c0.627,0,0.923-0.286,1.06-0.522c0.096-0.164,0.188-0.435,0.092-0.794C40.015,32.766,39.385,32.063,38.412,31.218z"/>
		<path fill="#0078A3" d="M13.015,21.474c0.448,0.277,0.901,0.558,1.364,0.84c-0.451-0.85-0.883-1.692-1.291-2.521
			C13.055,20.342,13.03,20.901,13.015,21.474z"/>
		<path fill="#0078A3" d="M11.473,16.286c-0.028,0.045-0.056,0.091-0.083,0.137c0.058,0.029,0.12,0.062,0.179,0.091
			C11.534,16.437,11.506,16.362,11.473,16.286z"/>
		<path fill="#8FCB30" d="M36.959,32.005c0.269,0.218,0.501,0.414,0.707,0.596c0.269-0.449,0.515-0.911,0.746-1.383
			c-0.301-0.261-0.635-0.535-0.996-0.82C37.288,30.944,37.135,31.48,36.959,32.005z"/>
		<path fill="#8FCB30" d="M4.354,13.204c0.18-0.489,0.386-0.96,0.607-1.42c-0.167-0.062-0.331-0.123-0.487-0.178
			c-0.312,0.43-0.601,0.874-0.877,1.329C3.826,13.012,4.079,13.102,4.354,13.204z"/>
		<path fill="#0078A3" d="M4.23,13.586c-0.258-0.209-0.482-0.398-0.682-0.574c-0.271,0.452-0.521,0.916-0.756,1.39
			c0.282,0.244,0.6,0.507,0.971,0.799C3.896,14.646,4.053,14.109,4.23,13.586z"/>
		<path fill="#0078A3" d="M36.832,32.4c-0.178,0.487-0.381,0.96-0.602,1.423c0.178,0.066,0.351,0.131,0.516,0.189
			c0.311-0.431,0.597-0.877,0.871-1.332C37.379,32.602,37.117,32.509,36.832,32.4z"/>
		<path fill="#00BCB2" d="M29.324,28.934c-0.059,0.464-0.129,0.914-0.2,1.363c0.196-0.294,0.389-0.592,0.577-0.896
			c-0.051-0.117-0.103-0.235-0.154-0.354C29.473,29.011,29.397,28.972,29.324,28.934z"/>
		<path fill="#0078A3" d="M30.371,31.194c0.031,0.016,0.062,0.03,0.094,0.046c-0.016-0.039-0.031-0.078-0.047-0.117
			C30.402,31.147,30.387,31.17,30.371,31.194z"/>
		<path fill="#0078A3" d="M10.85,14.423c-0.058-0.028-0.115-0.058-0.173-0.086c0.028,0.073,0.055,0.145,0.084,0.219
			C10.79,14.511,10.82,14.467,10.85,14.423z"/>
		<path fill="#0078A3" d="M25.615,24.373c0.862,0.523,1.681,1.029,2.463,1.521c-0.45-0.919-0.906-1.812-1.354-2.659
			c-0.886-0.541-1.752-1.062-2.58-1.552C24.668,22.607,25.158,23.505,25.615,24.373z"/>
		<path fill="#00BCB2" d="M15.487,21.173c-0.837-0.509-1.632-1.001-2.393-1.479c-0.003,0.032-0.005,0.064-0.007,0.098
			c0.408,0.829,0.84,1.672,1.291,2.521c0.84,0.513,1.7,1.03,2.58,1.551C16.448,22.962,15.953,22.062,15.487,21.173z"/>
		<path fill="#00BCB2" d="M13.359,16.804c-0.025,0.195-0.042,0.401-0.064,0.601c0.146,0.076,0.29,0.151,0.438,0.229
			C13.603,17.353,13.484,17.08,13.359,16.804z"/>
		<path fill="#00BCB2" d="M11.86,16.663c0.056-0.434,0.123-0.853,0.189-1.273c-0.196,0.295-0.389,0.592-0.577,0.896
			c0.033,0.076,0.062,0.15,0.096,0.228C11.664,16.562,11.764,16.614,11.86,16.663z"/>
		<path fill="#00BCB2" d="M27.816,28.867c0.028-0.22,0.048-0.45,0.073-0.675c-0.17-0.088-0.335-0.174-0.507-0.265
			C27.529,28.243,27.68,28.562,27.816,28.867z"/>
		<path fill="#0078A3" d="M29.539,26.819c0.046-0.582,0.087-1.168,0.113-1.766c-0.496-0.314-0.994-0.626-1.49-0.934
			c-0.015,0.604-0.04,1.196-0.076,1.778C28.586,26.212,29.072,26.52,29.539,26.819z"/>
		<path fill="#00A7E3" d="M13.019,19.646c-0.474-0.298-0.934-0.589-1.376-0.874c-0.048,0.582-0.087,1.17-0.113,1.769
			c0.484,0.308,0.98,0.618,1.485,0.933c0.016-0.572,0.04-1.132,0.073-1.682C13.064,19.743,13.042,19.695,13.019,19.646z"/>
		<path fill="#0078A3" d="M28.4,30.203c-0.184-0.433-0.379-0.879-0.584-1.336c-0.042,0.328-0.094,0.642-0.142,0.96
			C27.917,29.953,28.16,30.08,28.4,30.203z"/>
		<path fill="#00A7E3" d="M12.731,15.368c0.199,0.472,0.409,0.949,0.628,1.436c0.045-0.354,0.101-0.69,0.153-1.032
			C13.251,15.636,12.99,15.501,12.731,15.368z"/>
		<path fill="#00BCB2" d="M13.295,17.404c0.022-0.199,0.039-0.405,0.064-0.601c-0.219-0.486-0.429-0.964-0.628-1.436
			c-0.167-0.086-0.331-0.168-0.497-0.252c-0.062,0.091-0.123,0.182-0.185,0.273c-0.066,0.421-0.134,0.84-0.189,1.273
			C12.326,16.9,12.804,17.147,13.295,17.404z"/>
		<path fill="#00BCB2" d="M27.89,28.192c-0.025,0.225-0.045,0.455-0.073,0.675c0.205,0.457,0.4,0.903,0.584,1.336
			c0.197,0.102,0.391,0.198,0.586,0.298c0.046-0.068,0.092-0.136,0.138-0.204c0.071-0.449,0.142-0.899,0.2-1.363
			C28.858,28.696,28.38,28.449,27.89,28.192z"/>
		<path fill="#00BCB2" d="M13.088,19.792c0.002-0.033,0.004-0.065,0.007-0.098c-0.025-0.016-0.052-0.032-0.076-0.048
			C13.042,19.695,13.064,19.743,13.088,19.792z"/>
		<path fill="#0078A3" d="M31.455,26.211c-0.225,0.464-0.465,0.925-0.714,1.387c0.444,0.29,0.876,0.575,1.285,0.85
			c0.251-0.46,0.499-0.92,0.725-1.383C32.326,26.781,31.894,26.497,31.455,26.211z"/>
		<path fill="#FFD300" d="M29.701,29.401c0.25,0.576,0.489,1.151,0.717,1.722c0.271-0.406,0.533-0.821,0.791-1.243
			c-0.447-0.22-0.904-0.447-1.38-0.688C29.786,29.262,29.744,29.333,29.701,29.401z"/>
		<path fill="#FFD300" d="M11.473,16.286c-0.254-0.59-0.489-1.166-0.712-1.73c-0.257,0.386-0.507,0.779-0.751,1.18
			c0.446,0.219,0.903,0.446,1.38,0.688C11.417,16.377,11.444,16.331,11.473,16.286z"/>
		<path fill="#0078A3" d="M9.188,17.165c-0.252,0.458-0.499,0.917-0.728,1.38c0.419,0.28,0.852,0.565,1.296,0.855
			c0.226-0.464,0.467-0.925,0.717-1.385C10.028,17.725,9.596,17.439,9.188,17.165z"/>
		<path fill="#FFD300" d="M29.124,30.297c-0.014,0.084-0.026,0.17-0.04,0.254c0.436,0.221,0.864,0.435,1.287,0.644
			c0.016-0.024,0.031-0.047,0.047-0.071c-0.228-0.57-0.467-1.146-0.717-1.722C29.513,29.705,29.32,30.003,29.124,30.297z"/>
		<path fill="#FFD300" d="M12.05,15.39c0.018-0.113,0.034-0.229,0.053-0.341c-0.425-0.215-0.841-0.423-1.253-0.626
			c-0.029,0.044-0.06,0.088-0.089,0.133c0.223,0.564,0.458,1.141,0.712,1.73C11.661,15.981,11.854,15.685,12.05,15.39z"/>
		<path fill="#FFD300" d="M29.084,30.551c0.014-0.084,0.026-0.17,0.04-0.254c-0.046,0.068-0.092,0.136-0.138,0.204
			C29.02,30.518,29.052,30.534,29.084,30.551z"/>
		<path fill="#FFD300" d="M12.103,15.049c-0.019,0.112-0.035,0.228-0.053,0.341c0.062-0.092,0.122-0.183,0.185-0.273
			C12.19,15.094,12.146,15.071,12.103,15.049z"/>
		<path fill="#F44A98" d="M36.104,29.399c-0.107,0.558-0.241,1.102-0.401,1.633c0.287,0.216,0.55,0.417,0.797,0.609
			c0.262-0.453,0.5-0.92,0.722-1.396C36.872,29.972,36.498,29.689,36.104,29.399z"/>
		<path fill="#0078A3" d="M35.451,31.843c-0.177,0.49-0.377,0.967-0.602,1.429c0.153,0.065,0.293,0.12,0.44,0.181
			c0.317-0.422,0.616-0.857,0.896-1.306C35.953,32.053,35.708,31.951,35.451,31.843z"/>
		<path fill="#0078A3" d="M4.717,13.972c-0.266,0.454-0.506,0.922-0.73,1.398c0.33,0.257,0.693,0.53,1.098,0.826
			c0.109-0.561,0.246-1.104,0.407-1.633C5.213,14.355,4.957,14.159,4.717,13.972z"/>
		<path fill="#F44A98" d="M5.746,13.765c0.18-0.492,0.382-0.968,0.607-1.426c-0.146-0.062-0.279-0.113-0.421-0.172
			c-0.319,0.421-0.62,0.854-0.902,1.302C5.258,13.561,5.496,13.659,5.746,13.765z"/>
		<path fill="#F44A98" d="M5.933,12.167c-0.34-0.139-0.665-0.267-0.972-0.383c-0.222,0.46-0.428,0.931-0.607,1.42
			c0.213,0.08,0.438,0.169,0.677,0.265C5.312,13.021,5.613,12.588,5.933,12.167z"/>
		<path fill="#0078A3" d="M4.717,13.972c-0.171-0.133-0.335-0.263-0.486-0.386c-0.178,0.523-0.335,1.061-0.467,1.614
			c0.07,0.054,0.149,0.114,0.223,0.17C4.211,14.894,4.451,14.426,4.717,13.972z"/>
		<path fill="#0078A3" d="M35.29,33.452c0.329,0.134,0.643,0.259,0.94,0.371c0.221-0.463,0.424-0.936,0.602-1.423
			c-0.203-0.077-0.42-0.162-0.646-0.254C35.906,32.595,35.607,33.03,35.29,33.452z"/>
		<path fill="#F44A98" d="M36.5,31.642c0.16,0.125,0.316,0.248,0.459,0.363c0.176-0.524,0.329-1.061,0.457-1.607
			c-0.062-0.051-0.129-0.102-0.194-0.152C37,30.722,36.762,31.188,36.5,31.642z"/>
	</g>
</g>
</svg>
