<?xml version="1.0" encoding="utf-8"?>
<!-- Generator: Adobe Illustrator 16.0.0, SVG Export Plug-In . SVG Version: 6.00 Build 0)  -->
<!DOCTYPE svg PUBLIC "-//W3C//DTD SVG 1.1//EN" "http://www.w3.org/Graphics/SVG/1.1/DTD/svg11.dtd">
<svg version="1.1" id="Layer_1" xmlns="http://www.w3.org/2000/svg" xmlns:xlink="http://www.w3.org/1999/xlink" x="0px" y="0px"
	 width="168px" height="46px" viewBox="0 0 168 46" enable-background="new 0 0 168 46" xml:space="preserve">
<g>
	<g>
		<path d="M60.361,29.854l0.059,1.778c0,0-3.293,0.466-5.654,0.466c-4.371,0-5.799-2.535-5.799-7.489
			c0-5.538,2.418-7.665,6.119-7.665c3.848,0,5.859,2.04,5.859,6.819l-0.117,1.69h-9.646c0.029,3.061,0.961,4.663,3.848,4.663
			C57.215,30.117,60.361,29.854,60.361,29.854z M58.76,23.677c0-3.498-1.137-4.78-3.674-4.78c-2.506,0-3.904,1.37-3.904,4.78H58.76z
			"/>
		<path d="M64.734,10.882h2.156v20.926h-2.156V10.882z"/>
		<path d="M81.957,28.864c0.059,0.933,0.758,1.224,1.689,1.341l-0.086,1.894c-1.75,0-2.682-0.32-3.439-1.107
			c0,0-2.623,1.107-5.393,1.107c-2.535,0-3.963-1.603-3.963-4.459c0-2.798,1.428-4.051,4.43-4.313l4.605-0.437v-1.195
			c0-1.836-0.934-2.652-2.535-2.652c-2.129,0-5.568,0.379-5.568,0.379l-0.086-1.894c0,0,3.496-0.583,5.74-0.583
			c3.09,0,4.605,1.457,4.605,4.75V28.864z M75.486,25.017c-1.777,0.175-2.506,1.079-2.506,2.565c0,1.69,0.758,2.623,2.068,2.623
			c2.217,0,4.752-0.875,4.752-0.875v-4.663L75.486,25.017z"/>
		<path d="M96.617,19.393c0,0-3.234-0.467-5.1-0.467c-1.809,0-3.148,0.467-3.148,2.186c0,1.37,0.67,1.778,3.555,2.215
			c3.848,0.612,5.246,1.399,5.246,4.227c0,3.41-2.156,4.546-5.682,4.546c-1.865,0-5.131-0.554-5.131-0.554l0.117-1.894
			c0,0,3.322,0.495,4.809,0.495c2.391,0,3.672-0.524,3.672-2.507c0-1.516-0.758-1.865-3.672-2.331
			c-3.555-0.554-5.129-1.253-5.129-4.109c0-3.206,2.594-4.255,5.246-4.255c2.186,0,5.275,0.554,5.275,0.554L96.617,19.393z"/>
		<path d="M103.844,19.218v6.79c0,3.177,0.176,4.051,2.1,4.051c0.814,0,2.594-0.146,2.594-0.146l0.115,1.895
			c0,0-1.922,0.32-2.943,0.32c-3.002,0-4.051-1.137-4.051-5.333v-7.577H99.59v-1.982h2.068v-4.459h2.186v4.459h4.605v1.982H103.844z
			"/>
		<path d="M111.742,11.406h2.158v2.536h-2.158V11.406z M111.742,17.235h2.158v14.572h-2.158V17.235z"/>
		<path d="M127.713,17.381l-0.059,1.895c0,0-2.332-0.262-3.439-0.262c-3.352,0-4.254,1.398-4.254,5.245c0,4.256,0.67,5.8,4.254,5.8
			c1.107,0,3.469-0.262,3.469-0.262l0.088,1.895c0,0-2.74,0.407-4.051,0.407c-4.664,0-6.004-2.127-6.004-7.84
			c0-5.274,1.689-7.314,6.033-7.314C125.09,16.944,127.713,17.381,127.713,17.381z"/>
		<path fill="#666666" d="M131.531,31.808V17.235h2.186v0.991c0,0,1.748-1.05,3.643-1.166c0.584-0.059,1.137-0.087,1.604-0.029
			c1.225,0.117,2.098,0.524,2.682,1.225c0.846-0.321,3.264-1.312,5.275-1.312c3.963,0,4.926,1.895,4.926,7.286v7.577h-2.188V24.9
			c0-4.459-0.291-5.945-3.059-5.945c-1.982,0-4.023,1.049-4.08,1.078c0.232,0.671,0.35,2.448,0.35,4.197v7.577h-2.188v-7.52
			c0-4.021-0.406-5.333-3.059-5.333c-1.953,0-3.906,1.078-3.906,1.078v11.774H131.531z"/>
		<path fill="#666666" d="M166.242,19.393c0,0-3.234-0.467-5.1-0.467c-1.809,0-3.148,0.467-3.148,2.186
			c0,1.37,0.67,1.778,3.555,2.215c3.848,0.612,5.246,1.399,5.246,4.227c0,3.41-2.156,4.546-5.682,4.546
			c-1.865,0-5.131-0.554-5.131-0.554l0.117-1.894c0,0,3.322,0.495,4.809,0.495c2.391,0,3.672-0.524,3.672-2.507
			c0-1.516-0.758-1.865-3.672-2.331c-3.555-0.554-5.129-1.253-5.129-4.109c0-3.206,2.594-4.255,5.246-4.255
			c2.186,0,5.275,0.554,5.275,0.554L166.242,19.393z"/>
	</g>
	<g>
		<path fill="none" d="M20.315,5.445c-0.81-0.14-1.624-0.217-2.436-0.217c-0.114,0-0.222,0.019-0.335,0.021
			c-0.482,0.607-0.948,1.332-1.381,2.189c0.178,0.188,0.354,0.369,0.533,0.569C17.877,7.002,19.092,6.141,20.315,5.445z"/>
		<path fill="none" d="M17.689,9.157c2.59,3.1,5.321,7.169,7.586,11.091c0.514,0.891,1.074,1.903,1.647,2.988
			c0.476,0.29,0.957,0.586,1.438,0.886c0.012-0.427,0.027-0.847,0.027-1.284c0-6.779-1.317-12.258-3.136-15.685
			c-0.872-0.458-1.767-0.843-2.675-1.142C20.938,6.731,19.283,7.794,17.689,9.157z"/>
		<path fill="none" d="M29.852,25.056c0.606,0.384,1.209,0.771,1.803,1.157c1.553-3.213,2.484-6.437,2.795-9.376
			c-0.236-0.487-0.482-0.972-0.759-1.449c-1.601-2.772-3.737-5.1-6.15-6.826c1.468,3.733,2.359,8.713,2.359,14.276
			C29.899,23.588,29.883,24.327,29.852,25.056z"/>
		<path fill="none" d="M20.742,42.267c-0.328-0.001-0.646-0.034-0.971-0.051c0.339,0.13,0.678,0.219,1.016,0.219
			s0.676-0.088,1.015-0.219c-0.337,0.018-0.669,0.051-1.01,0.051H20.742z"/>
		<path fill="none" d="M15.417,39.972c-0.064-0.107-0.129-0.219-0.192-0.331c-3.194-1.769-6.059-4.479-8.173-7.847
			c0.058,1.25,0.232,2.403,0.541,3.425C9.723,37.4,12.4,39.062,15.417,39.972z"/>
		<path fill="none" d="M11.729,20.543c-0.61-0.387-1.2-0.767-1.773-1.141c-1.543,3.172-2.506,6.419-2.815,9.471
			c0.233,0.477,0.476,0.95,0.744,1.415c1.601,2.773,3.738,5.101,6.151,6.829c-1.468-3.734-2.36-8.715-2.36-14.279
			C11.675,22.061,11.694,21.296,11.729,20.543z"/>
		<path fill="none" d="M23.885,36.525c-2.59-3.101-5.321-7.171-7.586-11.094c-0.604-1.045-1.174-2.085-1.721-3.116
			c-0.463-0.282-0.916-0.562-1.364-0.84c-0.012,0.451-0.028,0.898-0.028,1.362c0,6.781,1.318,12.262,3.139,15.688
			c0.873,0.458,1.768,0.843,2.677,1.142C20.639,38.948,22.293,37.888,23.885,36.525z"/>
		<path fill="none" d="M11.768,16.516c-0.059-0.029-0.121-0.062-0.179-0.091c-0.167,0.271-0.337,0.538-0.497,0.816
			c-0.148,0.257-0.278,0.518-0.42,0.776c0.378,0.247,0.768,0.499,1.17,0.757c0.047-0.578,0.107-1.144,0.174-1.704
			C11.934,16.886,11.847,16.698,11.768,16.516z"/>
		<path fill="none" d="M22.19,20.424c0.673,0.389,1.396,0.812,2.152,1.261c-0.13-0.229-0.247-0.447-0.381-0.678
			c-2.591-4.488-5.174-8.167-7.395-10.831c-0.765,0.734-1.508,1.542-2.226,2.402c-0.246,0.999-0.457,2.066-0.63,3.195
			C16.496,17.217,19.446,18.84,22.19,20.424z"/>
		<path fill="none" d="M27.582,27.93c-0.523-1.122-1.111-2.308-1.768-3.555c-1.371-0.833-2.836-1.702-4.4-2.605
			c-2.696-1.557-5.212-2.94-7.481-4.134c0.536,1.151,1.124,2.336,1.754,3.539c1.405,0.854,2.912,1.748,4.521,2.678
			C22.861,25.384,25.341,26.749,27.582,27.93z"/>
		<path fill="none" d="M30.664,31.242c0.771,1.946,1.39,3.821,1.725,5.442c0.42-0.338,0.82-0.699,1.208-1.072
			c0.556-0.725,1.047-1.502,1.452-2.339C33.758,32.729,32.265,32.031,30.664,31.242z"/>
		<path fill="none" d="M29.557,28.623c0.063,0.143,0.127,0.284,0.189,0.427c0.093,0.047,0.189,0.098,0.282,0.145
			c0.153-0.251,0.311-0.498,0.459-0.755c0.161-0.279,0.302-0.56,0.453-0.84c-0.388-0.254-0.788-0.514-1.202-0.778
			C29.689,27.434,29.627,28.032,29.557,28.623z"/>
		<path fill="none" d="M19.432,25.198c-0.77-0.444-1.525-0.889-2.273-1.332c0.151,0.27,0.299,0.537,0.454,0.807
			c2.592,4.49,5.174,8.17,7.396,10.834c0.764-0.732,1.504-1.537,2.221-2.396c0.253-1.024,0.469-2.12,0.646-3.282
			C25.101,28.391,22.164,26.775,19.432,25.198z"/>
		<path fill="none" d="M5.573,29.069c-1.871-4.042-2.547-8.406-1.895-12.5c-0.745,1.942-1.174,4.034-1.179,6.227
			c-0.009,3.681,1.123,7.107,3.065,9.961c-0.05-0.533-0.081-1.083-0.085-1.651C5.477,30.439,5.514,29.758,5.573,29.069z"/>
		<path fill="none" d="M9.387,17.167c0.126-0.231,0.242-0.465,0.374-0.694c0.145-0.251,0.299-0.49,0.448-0.735
			c-1.644-0.809-3.076-1.468-4.264-1.971c-0.096,0.26-0.173,0.531-0.255,0.799C6.686,15.31,7.918,16.183,9.387,17.167z"/>
		<path fill="none" d="M6.392,16.996c-0.401-0.283-0.765-0.546-1.108-0.798c-0.037,0.186-0.086,0.363-0.117,0.552
			c-0.494,3.042-0.18,6.251,0.85,9.349c0.519-2.492,1.409-5.049,2.644-7.552C7.858,18.012,7.092,17.49,6.392,16.996z"/>
		<path fill="none" d="M32.226,28.449c-0.138,0.253-0.262,0.507-0.407,0.759c-0.133,0.229-0.273,0.449-0.41,0.674
			c1.634,0.804,3.059,1.46,4.242,1.963c0.096-0.264,0.17-0.539,0.252-0.811C34.91,30.294,33.684,29.427,32.226,28.449z"/>
		<path fill="none" d="M28.583,33.871c-0.388,1.488-0.846,2.86-1.376,4.069c0.447,0.445,0.865,0.826,1.255,1.148
			c0.888-0.406,1.747-0.863,2.552-1.397c-0.216-1.267-0.689-2.979-1.457-5.062C29.238,33.055,28.914,33.469,28.583,33.871z"/>
		<path fill="none" d="M35.978,16.548c1.951,4.198,2.546,8.642,1.896,12.625c0.76-1.959,1.197-4.072,1.202-6.288
			c0.009-3.708-1.138-7.159-3.106-10.026C36.086,14.023,36.083,15.263,35.978,16.548z"/>
		<path fill="none" d="M21.821,3.465c-0.345-0.135-0.69-0.226-1.034-0.226c-0.341,0-0.684,0.09-1.026,0.223
			c0.341-0.018,0.677-0.051,1.022-0.051C21.134,3.412,21.476,3.446,21.821,3.465z"/>
		<path fill="none" d="M21.264,40.233c0.809,0.139,1.621,0.216,2.431,0.216c0.112,0,0.22-0.018,0.331-0.021
			c0.483-0.606,0.949-1.33,1.382-2.188c-0.176-0.188-0.351-0.367-0.529-0.566C23.699,38.679,22.486,39.539,21.264,40.233z"/>
		<path fill="none" d="M36.304,29.401c0.59-3.075,0.357-6.483-0.755-9.839c-0.498,2.438-1.365,4.981-2.599,7.504
			C34.158,27.872,35.297,28.661,36.304,29.401z"/>
		<path fill="none" d="M10.876,14.339c-0.333-0.854-0.638-1.686-0.894-2.471c-0.348-1.069-0.607-2.024-0.786-2.875
			c-0.431,0.347-0.843,0.715-1.24,1.099c-0.531,0.693-1.006,1.438-1.403,2.249C7.826,12.877,9.299,13.563,10.876,14.339z"/>
		<path fill="none" d="M12.011,13.067c0.318-0.428,0.644-0.844,0.977-1.249c0.388-1.492,0.847-2.867,1.378-4.079
			c-0.445-0.443-0.861-0.822-1.249-1.143c-0.892,0.406-1.753,0.865-2.56,1.401c0.138,0.857,0.401,1.968,0.868,3.401
			C11.6,11.936,11.799,12.495,12.011,13.067z"/>
		<path fill="none" d="M26.159,5.706c0.065,0.108,0.13,0.22,0.192,0.332c3.207,1.775,6.08,4.5,8.195,7.884
			c-0.053-1.233-0.225-2.392-0.537-3.432C31.875,8.295,29.188,6.622,26.159,5.706z"/>
		<path fill="none" d="M3.576,12.863c0.052,0.047,0.116,0.101,0.172,0.15c0.016-0.025,0.032-0.051,0.048-0.076
			C3.724,12.913,3.644,12.885,3.576,12.863z"/>
		<path fill="none" d="M26.154,39.976c0.254-0.076,0.496-0.174,0.744-0.261c-0.127-0.114-0.256-0.235-0.385-0.357
			C26.397,39.573,26.275,39.773,26.154,39.976z"/>
		<path fill="none" d="M10.975,39.838c0.495,0.286,1.027,0.501,1.59,0.649c-0.925-0.417-1.814-0.895-2.655-1.44
			C10.241,39.343,10.59,39.616,10.975,39.838z"/>
		<path fill="none" d="M11.106,5.435C11.04,5.423,10.967,5.4,10.907,5.4c-0.071,0-0.128,0.012-0.169,0.034
			c-0.068,0.039-0.144,0.148-0.203,0.341c0.1-0.061,0.189-0.133,0.291-0.191C10.918,5.53,11.014,5.485,11.106,5.435z"/>
		<path fill="none" d="M15.497,8.938c-0.034,0.083-0.065,0.172-0.099,0.257c0.059-0.057,0.115-0.117,0.174-0.172
			C15.547,8.994,15.521,8.966,15.497,8.938z"/>
		<polygon fill="none" points="28.285,25.9 28.28,25.896 28.285,25.91 		"/>
		<path fill="none" d="M30.604,5.84c-0.514-0.297-1.066-0.52-1.652-0.667c0.961,0.43,1.885,0.923,2.756,1.491
			C31.366,6.355,31.006,6.071,30.604,5.84z"/>
		<path fill="none" d="M30.462,40.247c0.069,0.012,0.145,0.035,0.206,0.035c0.072,0,0.129-0.012,0.17-0.034
			c0.1-0.058,0.169-0.191,0.224-0.361c-0.106,0.065-0.203,0.144-0.312,0.207C30.654,40.148,30.558,40.195,30.462,40.247z"/>
		<path fill="none" d="M26.075,36.741c0.032-0.079,0.062-0.165,0.095-0.246c-0.057,0.054-0.111,0.111-0.167,0.165
			C26.027,36.688,26.052,36.715,26.075,36.741z"/>
		<path fill="none" d="M15.412,5.71c-0.249,0.076-0.488,0.175-0.732,0.26c0.125,0.113,0.251,0.232,0.378,0.352
			C15.172,6.108,15.293,5.91,15.412,5.71z"/>
		<path fill="none" d="M38.045,32.76c-0.054-0.049-0.12-0.105-0.18-0.157c-0.016,0.027-0.033,0.054-0.049,0.08
			C37.892,32.708,37.975,32.737,38.045,32.76z"/>
		<path fill="#8FCB30" d="M15.82,40.612c-0.139-0.204-0.271-0.42-0.403-0.641c-3.017-0.91-5.694-2.571-7.824-4.753
			c0.482,1.599,1.268,2.891,2.316,3.828c0.841,0.546,1.73,1.023,2.655,1.44c0.596,0.157,1.227,0.239,1.891,0.239
			C14.902,40.727,15.359,40.68,15.82,40.612z"/>
		<path fill="#8FCB30" d="M9.147,8.73c-0.431,0.42-0.821,0.88-1.191,1.361c0.397-0.384,0.81-0.752,1.24-1.099
			C9.178,8.901,9.164,8.819,9.147,8.73z"/>
		<path fill="#8FCB30" d="M2.5,22.796c0.005-2.192,0.434-4.284,1.179-6.227c0.003-0.02,0.004-0.04,0.007-0.06
			c0.072-0.447,0.176-0.878,0.277-1.308c-0.371-0.292-0.688-0.555-0.971-0.799C1.735,16.946,1.007,19.784,1,22.792
			c-0.012,5.053,1.969,9.652,5.193,13.119c-0.311-0.962-0.52-2.019-0.628-3.154C3.623,29.903,2.491,26.477,2.5,22.796z"/>
		<path fill="#8FCB30" d="M26.154,39.976c-0.048,0.081-0.094,0.168-0.143,0.246c0.398-0.07,0.793-0.147,1.179-0.256
			c-0.098-0.084-0.193-0.162-0.292-0.251C26.65,39.802,26.408,39.899,26.154,39.976z"/>
		<path fill="#8FCB30" d="M25.758,5.067c0.137,0.203,0.27,0.419,0.401,0.639c3.029,0.916,5.716,2.589,7.851,4.784
			c-0.471-1.565-1.243-2.867-2.303-3.826c-0.871-0.568-1.795-1.062-2.756-1.491c-0.577-0.146-1.188-0.221-1.826-0.221
			C26.678,4.952,26.22,4.999,25.758,5.067z"/>
		<path fill="#8FCB30" d="M34.696,36.637c0.828-0.805,1.575-1.687,2.249-2.622c-0.165-0.059-0.338-0.123-0.516-0.189
			C35.951,34.832,35.372,35.773,34.696,36.637z"/>
		<path fill="#8FCB30" d="M15.412,5.71c0.051-0.083,0.098-0.173,0.148-0.254c-0.398,0.071-0.795,0.148-1.18,0.257
			c0.1,0.086,0.197,0.166,0.299,0.257C14.924,5.885,15.163,5.786,15.412,5.71z"/>
		<path fill="#8FCB30" d="M28.823,39.373c0.398-0.177,0.795-0.358,1.176-0.578c0.375-0.217,0.727-0.46,1.071-0.712
			c-0.018-0.129-0.033-0.252-0.057-0.392c-0.805,0.534-1.664,0.991-2.552,1.397C28.586,39.191,28.705,39.283,28.823,39.373z"/>
		<path fill="#8FCB30" d="M3.796,12.938c-0.016,0.025-0.032,0.051-0.048,0.076c0.199,0.176,0.424,0.365,0.682,0.574
			c0.043-0.126,0.077-0.258,0.123-0.382C4.278,13.104,4.025,13.014,3.796,12.938z"/>
		<path fill="#8FCB30" d="M12.748,6.307c-0.397,0.176-0.792,0.356-1.172,0.576c-0.375,0.217-0.73,0.459-1.078,0.712
			c0.016,0.127,0.037,0.263,0.059,0.403c0.807-0.536,1.668-0.995,2.56-1.401C12.989,6.491,12.868,6.398,12.748,6.307z"/>
		<path fill="#8FCB30" d="M22.449,4.409c0.191-0.078,0.382-0.143,0.572-0.212c-0.395-0.333-0.796-0.574-1.2-0.732
			c-0.346-0.019-0.688-0.053-1.038-0.054c-0.346,0-0.682,0.033-1.022,0.051c-0.212,0.082-0.422,0.188-0.632,0.318
			C20.242,3.871,21.354,4.089,22.449,4.409z"/>
		<path fill="#8FCB30" d="M32.44,36.936c0.419-0.411,0.798-0.857,1.156-1.323c-0.388,0.373-0.788,0.734-1.208,1.072
			C32.405,36.769,32.425,36.854,32.44,36.936z"/>
		<path fill="#8FCB30" d="M37.031,32.402c0.285,0.108,0.547,0.201,0.785,0.28c0.016-0.026,0.033-0.053,0.049-0.08
			c-0.206-0.182-0.438-0.378-0.707-0.596C37.113,32.138,37.078,32.272,37.031,32.402z"/>
		<path fill="#8FCB30" d="M19.13,41.271c-0.191,0.077-0.382,0.142-0.572,0.211c0.399,0.335,0.806,0.578,1.214,0.734
			c0.324,0.017,0.643,0.05,0.971,0.051h0.05c0.341,0,0.673-0.033,1.01-0.051c0.214-0.081,0.427-0.188,0.639-0.319
			C21.33,41.806,20.223,41.589,19.13,41.271z"/>
		<path fill="#8FCB30" d="M39.075,22.885c-0.005,2.216-0.442,4.329-1.202,6.288c-0.067,0.416-0.162,0.821-0.258,1.227
			c0.361,0.285,0.695,0.56,0.996,0.82c1.238-2.528,1.957-5.346,1.964-8.331c0.012-5.079-1.989-9.698-5.246-13.172
			c0.315,0.969,0.528,2.022,0.64,3.142C37.938,15.726,39.084,19.177,39.075,22.885z"/>
		<path fill="#8FCB30" d="M6.847,9.07c-0.799,0.78-1.519,1.635-2.174,2.538c0.156,0.055,0.32,0.116,0.487,0.178
			C5.632,10.807,6.197,9.9,6.847,9.07z"/>
		<path fill="#00BCB2" d="M30.838,40.248c-0.041,0.022-0.098,0.034-0.17,0.034c-0.062,0-0.137-0.023-0.206-0.035
			c-0.583,0.319-1.185,0.593-1.802,0.822c0.742,0.461,1.423,0.729,2.008,0.729c0.342,0,0.652-0.08,0.927-0.238
			c0.8-0.462,1.105-1.472,1.061-2.828c-0.5,0.418-1.028,0.807-1.594,1.154C31.007,40.057,30.938,40.19,30.838,40.248z"/>
		<path fill="#00BCB2" d="M28.277,25.896c-0.782-0.491-1.601-0.997-2.463-1.521c0.656,1.247,1.244,2.433,1.768,3.555
			c0.172,0.091,0.337,0.177,0.507,0.265c0.083-0.739,0.147-1.501,0.196-2.284C28.282,25.905,28.28,25.9,28.277,25.896z"/>
		<path fill="#00BCB2" d="M11.768,16.516c0.079,0.183,0.166,0.37,0.248,0.555c0.016-0.134,0.027-0.272,0.044-0.405
			C11.963,16.616,11.863,16.564,11.768,16.516z"/>
		<path fill="#00BCB2" d="M12.011,13.067c-0.212-0.572-0.411-1.132-0.586-1.668c-0.467-1.434-0.73-2.544-0.868-3.401
			c-0.469,0.312-0.924,0.643-1.36,0.995c0.179,0.851,0.438,1.806,0.786,2.875c0.256,0.785,0.561,1.616,0.894,2.471
			c0.058,0.028,0.115,0.058,0.173,0.086C11.361,13.96,11.682,13.508,12.011,13.067z"/>
		<path fill="#00BCB2" d="M29.557,32.629c0.768,2.083,1.241,3.796,1.457,5.062c0.475-0.314,0.934-0.65,1.375-1.007
			c-0.335-1.621-0.953-3.496-1.725-5.442c-0.031-0.016-0.062-0.03-0.094-0.046C30.241,31.687,29.903,32.164,29.557,32.629z"/>
		<path fill="#00BCB2" d="M16.567,10.176c2.221,2.664,4.804,6.343,7.395,10.831c0.134,0.23,0.251,0.449,0.381,0.678
			c0.828,0.49,1.694,1.011,2.58,1.552c-0.573-1.085-1.134-2.098-1.647-2.988c-2.265-3.922-4.996-7.991-7.586-11.091
			C17.312,9.48,16.938,9.82,16.567,10.176z"/>
		<path fill="#00BCB2" d="M25.008,35.507c-2.222-2.664-4.804-6.344-7.396-10.834c-0.155-0.27-0.303-0.537-0.454-0.807
			c-0.88-0.521-1.74-1.038-2.58-1.551c0.547,1.031,1.117,2.071,1.721,3.116c2.265,3.923,4.996,7.993,7.586,11.094
			C24.264,36.202,24.638,35.862,25.008,35.507z"/>
		<path fill="#00BCB2" d="M13.494,17.406c-0.085,0.74-0.15,1.504-0.2,2.29c0.761,0.478,1.556,0.97,2.393,1.479
			c-0.63-1.203-1.218-2.388-1.754-3.539C13.784,17.558,13.641,17.482,13.494,17.406z"/>
		<path fill="#00BCB2" d="M10.738,5.435C10.779,5.412,10.836,5.4,10.907,5.4c0.06,0,0.133,0.022,0.199,0.034
			c0.584-0.32,1.186-0.595,1.804-0.824c-0.74-0.459-1.42-0.727-2.003-0.727c-0.341,0-0.652,0.08-0.927,0.237
			c-0.76,0.439-1.102,1.38-1.052,2.812c0.507-0.42,1.039-0.811,1.606-1.157C10.595,5.583,10.67,5.474,10.738,5.435z"/>
		<path fill="#00BCB2" d="M14.68,5.97c-0.533,0.188-1.055,0.395-1.563,0.627c0.388,0.32,0.804,0.699,1.249,1.143
			c0.219-0.501,0.451-0.971,0.692-1.418C14.931,6.202,14.805,6.083,14.68,5.97z"/>
		<path fill="#00BCB2" d="M26.003,36.66c-0.371,0.353-0.746,0.691-1.125,1.015c0.179,0.199,0.354,0.379,0.529,0.566
			c0.233-0.462,0.454-0.97,0.668-1.5C26.052,36.715,26.027,36.688,26.003,36.66z"/>
		<path fill="#00BCB2" d="M29.746,29.05c-0.062-0.143-0.126-0.284-0.189-0.427c-0.012,0.104-0.021,0.21-0.033,0.312
			C29.597,28.974,29.672,29.013,29.746,29.05z"/>
		<path fill="#00BCB2" d="M26.898,39.715c0.533-0.187,1.055-0.395,1.563-0.626c-0.39-0.322-0.808-0.703-1.255-1.148
			c-0.22,0.5-0.452,0.971-0.693,1.417C26.643,39.479,26.771,39.601,26.898,39.715z"/>
		<path fill="#00BCB2" d="M15.572,9.022c0.371-0.353,0.746-0.691,1.125-1.015c-0.18-0.2-0.355-0.381-0.533-0.569
			c-0.232,0.462-0.453,0.97-0.667,1.499C15.521,8.966,15.547,8.994,15.572,9.022z"/>
		<path fill="#00BCB2" d="M26.898,39.715c0.099,0.089,0.194,0.167,0.292,0.251c0.56-0.157,1.103-0.357,1.633-0.593
			c-0.118-0.09-0.237-0.182-0.361-0.284C27.953,39.32,27.432,39.528,26.898,39.715z"/>
		<path fill="#00BCB2" d="M31.014,37.691c0.023,0.14,0.039,0.263,0.057,0.392c0.484-0.353,0.946-0.731,1.37-1.147
			c-0.016-0.082-0.035-0.167-0.052-0.251C31.947,37.041,31.488,37.377,31.014,37.691z"/>
		<path fill="#00BCB2" d="M14.68,5.97c-0.102-0.091-0.199-0.171-0.299-0.257c-0.56,0.157-1.103,0.358-1.633,0.594
			c0.12,0.092,0.241,0.185,0.368,0.29C13.625,6.364,14.146,6.157,14.68,5.97z"/>
		<path fill="#00BCB2" d="M10.557,7.998c-0.021-0.141-0.043-0.276-0.059-0.403C10.021,7.941,9.569,8.319,9.147,8.73
			c0.017,0.089,0.03,0.171,0.049,0.263C9.633,8.641,10.088,8.31,10.557,7.998z"/>
		<path fill="#00A7E3" d="M28.285,25.91c0.435,0.888,0.863,1.798,1.271,2.713c0.07-0.591,0.133-1.189,0.182-1.802
			c-0.467-0.3-0.953-0.607-1.453-0.921C28.285,25.903,28.285,25.907,28.285,25.91z"/>
		<path fill="#00A7E3" d="M15.225,39.641c0.063,0.112,0.128,0.224,0.192,0.331c0.297,0.09,0.603,0.156,0.905,0.231
			C15.953,40.027,15.587,39.841,15.225,39.641z"/>
		<path fill="#00A7E3" d="M13.214,21.476c-0.505-0.314-1.001-0.625-1.485-0.933c-0.034,0.753-0.054,1.518-0.054,2.295
			c0,5.564,0.893,10.545,2.36,14.279c0.739,0.528,1.505,0.997,2.289,1.408c-1.82-3.426-3.139-8.906-3.139-15.688
			C13.186,22.374,13.202,21.927,13.214,21.476z"/>
		<path fill="#00A7E3" d="M13.712,15.773c0.173-1.129,0.384-2.196,0.63-3.195c-0.575,0.691-1.134,1.417-1.668,2.181
			c0.083,0.202,0.17,0.407,0.257,0.611C13.189,15.503,13.45,15.638,13.712,15.773z"/>
		<path fill="#00A7E3" d="M19.761,3.462c0.343-0.133,0.686-0.223,1.026-0.223c0.344,0,0.689,0.091,1.034,0.226
			c0.892,0.048,1.771,0.142,2.627,0.301c0.077-0.019,0.154-0.042,0.231-0.06c-1.176-1.258-2.49-1.978-3.893-1.978
			c-1.424,0-2.757,0.742-3.947,2.038c0.113-0.008,0.227-0.012,0.339-0.017C18.021,3.597,18.885,3.507,19.761,3.462z"/>
		<path fill="#00A7E3" d="M15.058,6.321c0.361,0.343,0.731,0.717,1.106,1.117c0.433-0.857,0.898-1.582,1.381-2.189
			c-0.133,0.004-0.262,0.018-0.394,0.024c-0.591,0.118-1.171,0.265-1.739,0.437C15.293,5.91,15.172,6.108,15.058,6.321z"/>
		<path fill="#00A7E3" d="M15.398,9.194c0.033-0.085,0.064-0.174,0.099-0.257c-0.393-0.435-0.772-0.84-1.132-1.198
			c-0.531,1.212-0.99,2.587-1.378,4.079C13.761,10.877,14.566,9.999,15.398,9.194z"/>
		<path fill="#00A7E3" d="M26.514,39.357c-0.361-0.343-0.73-0.717-1.106-1.116c-0.433,0.857-0.898,1.581-1.382,2.188
			c0.15-0.004,0.297-0.02,0.445-0.027c0.571-0.115,1.133-0.259,1.684-0.426C26.275,39.773,26.397,39.573,26.514,39.357z"/>
		<path fill="#00A7E3" d="M26.17,36.495c-0.032,0.081-0.062,0.167-0.095,0.246c0.392,0.436,0.772,0.841,1.132,1.199
			c0.53-1.209,0.988-2.581,1.376-4.069C27.809,34.812,27.003,35.69,26.17,36.495z"/>
		<path fill="#00A7E3" d="M21.802,42.216c-0.339,0.131-0.677,0.219-1.015,0.219s-0.677-0.089-1.016-0.219
			c-0.9-0.045-1.788-0.14-2.652-0.3c-0.073,0.019-0.146,0.04-0.22,0.057c1.175,1.255,2.487,1.973,3.888,1.973
			c1.423,0,2.754-0.74,3.943-2.034c-0.11,0.008-0.223,0.012-0.333,0.017C23.55,42.082,22.683,42.173,21.802,42.216z"/>
		<path fill="#00A7E3" d="M26.352,6.038c-0.062-0.112-0.127-0.224-0.192-0.332c-0.297-0.09-0.604-0.156-0.906-0.231
			C25.623,5.651,25.99,5.838,26.352,6.038z"/>
		<path fill="#00A7E3" d="M27.874,29.829c-0.177,1.162-0.393,2.258-0.646,3.282c0.575-0.69,1.134-1.415,1.668-2.18
			c-0.098-0.241-0.191-0.478-0.297-0.727C28.359,30.082,28.116,29.955,27.874,29.829z"/>
		<path fill="#00A7E3" d="M28.361,24.122c0.496,0.308,0.994,0.619,1.49,0.934c0.031-0.729,0.048-1.468,0.048-2.218
			c0-5.563-0.892-10.543-2.359-14.276c-0.739-0.529-1.504-0.998-2.287-1.408c1.818,3.427,3.136,8.905,3.136,15.685
			C28.389,23.275,28.373,23.695,28.361,24.122z"/>
		<path fill="#00A7E3" d="M12.016,17.07c-0.066,0.561-0.127,1.126-0.174,1.704c0.442,0.285,0.902,0.576,1.376,0.874
			C12.789,18.772,12.389,17.912,12.016,17.07z"/>
		<path fill="#00A7E3" d="M17.151,5.273c-0.54,0.029-1.071,0.09-1.591,0.183c-0.051,0.081-0.098,0.171-0.148,0.254
			C15.98,5.538,16.561,5.392,17.151,5.273z"/>
		<path fill="#00A7E3" d="M26.159,5.706c-0.132-0.22-0.265-0.436-0.401-0.639c-0.327,0.048-0.657,0.111-0.99,0.192
			c0.162,0.071,0.324,0.139,0.485,0.215C25.556,5.55,25.862,5.616,26.159,5.706z"/>
		<path fill="#00A7E3" d="M24.471,40.401c0.523-0.03,1.037-0.089,1.541-0.18c0.049-0.078,0.095-0.165,0.143-0.246
			C25.604,40.143,25.042,40.286,24.471,40.401z"/>
		<path fill="#00A7E3" d="M15.417,39.972c0.132,0.221,0.265,0.437,0.403,0.641c0.327-0.049,0.657-0.111,0.99-0.193
			c-0.163-0.071-0.326-0.139-0.488-0.216C16.02,40.128,15.714,40.062,15.417,39.972z"/>
		<path fill="#00A7E3" d="M24.448,3.766c-0.856-0.159-1.735-0.253-2.627-0.301c0.404,0.158,0.806,0.399,1.2,0.732
			C23.5,4.025,23.976,3.881,24.448,3.766z"/>
		<path fill="#00A7E3" d="M22.44,41.896c-0.212,0.132-0.425,0.238-0.639,0.319c0.881-0.043,1.748-0.134,2.596-0.288
			c-0.233,0.011-0.467,0.021-0.703,0.021C23.276,41.949,22.858,41.931,22.44,41.896z"/>
		<path fill="#00A7E3" d="M19.129,3.78c0.21-0.131,0.42-0.236,0.632-0.318c-0.876,0.045-1.739,0.135-2.582,0.288
			c0.232-0.011,0.466-0.021,0.701-0.021C18.296,3.729,18.713,3.746,19.129,3.78z"/>
		<path fill="#00A7E3" d="M17.119,41.916c0.864,0.16,1.752,0.255,2.652,0.3c-0.408-0.156-0.814-0.399-1.214-0.734
			C18.075,41.655,17.596,41.8,17.119,41.916z"/>
		<path fill="#00BCB2" d="M28.089,28.194c0.49,0.257,0.969,0.504,1.435,0.741c0.013-0.103,0.021-0.209,0.033-0.312
			c-0.408-0.915-0.837-1.825-1.271-2.713C28.236,26.693,28.172,27.455,28.089,28.194z"/>
		<path fill="#00A7E3" d="M26.075,36.741c-0.214,0.53-0.435,1.038-0.668,1.5c0.376,0.399,0.745,0.773,1.106,1.116
			c0.241-0.446,0.474-0.917,0.693-1.417C26.848,37.582,26.467,37.177,26.075,36.741z"/>
		<path fill="#00BCB2" d="M12.06,16.665c-0.017,0.133-0.028,0.271-0.044,0.405c0.373,0.842,0.773,1.702,1.202,2.578
			c0.024,0.016,0.051,0.032,0.076,0.048c0.05-0.786,0.115-1.55,0.2-2.29C13.003,17.149,12.525,16.902,12.06,16.665z"/>
		<path fill="#00A7E3" d="M15.497,8.938c0.214-0.529,0.435-1.037,0.667-1.499c-0.375-0.4-0.745-0.774-1.106-1.117
			c-0.241,0.447-0.474,0.917-0.692,1.418C14.725,8.098,15.104,8.503,15.497,8.938z"/>
		<path fill="#00BCB2" d="M28.6,30.205c0.105,0.249,0.199,0.485,0.297,0.727c0.099-0.14,0.193-0.286,0.289-0.429
			C28.99,30.403,28.797,30.307,28.6,30.205z"/>
		<path fill="#00BCB2" d="M12.931,15.37c-0.087-0.204-0.174-0.409-0.257-0.611c-0.081,0.117-0.16,0.24-0.24,0.359
			C12.6,15.202,12.764,15.284,12.931,15.37z"/>
		<path fill="#FFD300" d="M9.955,19.402c-0.444-0.29-0.877-0.575-1.296-0.855c-1.234,2.503-2.125,5.06-2.644,7.552
			c0.312,0.938,0.68,1.865,1.124,2.774C7.449,25.821,8.412,22.574,9.955,19.402z"/>
		<path fill="#FFD300" d="M28.583,33.871c0.331-0.402,0.655-0.816,0.974-1.242c-0.137-0.37-0.28-0.749-0.436-1.143
			C28.965,32.314,28.782,33.106,28.583,33.871z"/>
		<path fill="#FFD300" d="M30.487,28.439c-0.148,0.257-0.306,0.504-0.459,0.755c0.476,0.24,0.933,0.468,1.38,0.688
			c0.137-0.225,0.277-0.444,0.41-0.674c0.146-0.252,0.27-0.506,0.407-0.759c-0.409-0.274-0.841-0.56-1.285-0.85
			C30.789,27.88,30.648,28.16,30.487,28.439z"/>
		<path fill="#FFD300" d="M26.003,36.66c0.056-0.054,0.11-0.111,0.167-0.165c0.396-1.017,0.752-2.146,1.059-3.384
			c-0.717,0.858-1.457,1.663-2.221,2.396C25.349,35.916,25.681,36.301,26.003,36.66z"/>
		<path fill="#FFD300" d="M12.564,40.487c-0.562-0.148-1.095-0.363-1.59-0.649c-0.385-0.222-0.733-0.495-1.065-0.791
			c-1.37-0.89-2.612-1.949-3.716-3.136c0.764,2.362,2.127,4.169,4.013,5.258c1.257,0.727,2.687,1.095,4.249,1.095
			c0.797,0,1.615-0.104,2.444-0.291c-0.032-0.034-0.063-0.069-0.095-0.104C15.321,41.569,13.906,41.093,12.564,40.487z"/>
		<path fill="#FFD300" d="M31.654,26.213c0.438,0.286,0.871,0.57,1.296,0.854c1.233-2.522,2.101-5.065,2.599-7.504
			c-0.304-0.916-0.663-1.827-1.1-2.726C34.139,19.776,33.207,23,31.654,26.213z"/>
		<path fill="#FFD300" d="M12.987,11.818c-0.333,0.405-0.658,0.821-0.977,1.249c0.139,0.373,0.284,0.753,0.438,1.14
			C12.606,13.378,12.788,12.585,12.987,11.818z"/>
		<path fill="#FFD300" d="M28.951,5.173c0.586,0.147,1.139,0.37,1.652,0.667c0.402,0.231,0.763,0.516,1.104,0.824
			c1.334,0.87,2.542,1.901,3.622,3.053c-0.749-2.295-2.068-4.118-3.957-5.208c-1.257-0.726-2.686-1.094-4.247-1.094
			c-0.798,0-1.616,0.104-2.445,0.291c0.033,0.036,0.066,0.073,0.099,0.109C26.238,4.112,27.629,4.581,28.951,5.173z"/>
		<path fill="#FFD300" d="M17.689,9.157c1.594-1.363,3.249-2.426,4.889-3.146c-0.748-0.245-1.503-0.436-2.263-0.566
			c-1.224,0.695-2.438,1.557-3.618,2.562C17.024,8.373,17.355,8.757,17.689,9.157z"/>
		<path fill="#FFD300" d="M11.092,17.241c0.16-0.278,0.33-0.546,0.497-0.816c-0.477-0.241-0.934-0.469-1.38-0.688
			c-0.149,0.245-0.304,0.484-0.448,0.735c-0.132,0.229-0.248,0.463-0.374,0.694c0.408,0.274,0.841,0.56,1.285,0.851
			C10.813,17.759,10.943,17.498,11.092,17.241z"/>
		<path fill="#FFD300" d="M23.885,36.525c-1.592,1.362-3.246,2.423-4.884,3.142c0.747,0.246,1.503,0.436,2.263,0.566
			c1.223-0.694,2.436-1.555,3.614-2.559C24.551,37.31,24.219,36.925,23.885,36.525z"/>
		<path fill="#FFD300" d="M34.989,14.638c0.363,0.629,0.689,1.267,0.988,1.91c0.105-1.285,0.108-2.524-0.009-3.689
			c-0.58-0.847-1.244-1.633-1.959-2.368c0.312,1.04,0.484,2.198,0.537,3.432C34.695,14.159,34.849,14.394,34.989,14.638z"/>
		<path fill="#FFD300" d="M15.572,9.022c-0.059,0.055-0.115,0.115-0.174,0.172c-0.395,1.017-0.751,2.146-1.057,3.384
			c0.718-0.86,1.461-1.668,2.226-2.402C16.227,9.767,15.895,9.382,15.572,9.022z"/>
		<path fill="#FFD300" d="M6.585,31.038c-0.372-0.645-0.704-1.303-1.012-1.969c-0.06,0.688-0.097,1.37-0.093,2.036
			c0.004,0.568,0.035,1.118,0.085,1.651c0.6,0.881,1.283,1.7,2.027,2.462c-0.309-1.021-0.483-2.175-0.541-3.425
			C6.895,31.544,6.734,31.296,6.585,31.038z"/>
		<path fill="#8FCB30" d="M31.707,6.664c1.06,0.959,1.832,2.261,2.303,3.826c0.715,0.735,1.379,1.521,1.959,2.368
			c-0.111-1.119-0.324-2.173-0.64-3.142C34.249,8.565,33.041,7.534,31.707,6.664z"/>
		<path fill="#FFD300" d="M9.909,39.047c-1.049-0.938-1.834-2.229-2.316-3.828c-0.744-0.762-1.428-1.581-2.027-2.462
			c0.108,1.136,0.317,2.192,0.628,3.154C7.297,37.098,8.539,38.157,9.909,39.047z"/>
		<path fill="#FFD300" d="M14.455,40.727c-0.664,0-1.295-0.082-1.891-0.239c1.342,0.605,2.757,1.082,4.24,1.381
			c-0.341-0.375-0.67-0.79-0.984-1.256C15.359,40.68,14.902,40.727,14.455,40.727z"/>
		<path fill="#FFD300" d="M23.021,4.197c-0.19,0.069-0.381,0.134-0.572,0.212c0.404,0.117,0.806,0.25,1.205,0.397
			C23.445,4.578,23.234,4.377,23.021,4.197z"/>
		<path fill="#FFD300" d="M18.558,41.481c0.19-0.069,0.381-0.134,0.572-0.211c-0.404-0.118-0.806-0.251-1.205-0.398
			C18.133,41.101,18.344,41.302,18.558,41.481z"/>
		<path fill="#FFD300" d="M27.125,4.952c0.639,0,1.249,0.074,1.826,0.221c-1.322-0.592-2.713-1.061-4.173-1.357
			c0.339,0.375,0.667,0.787,0.979,1.252C26.22,4.999,26.678,4.952,27.125,4.952z"/>
		<path fill="#FFD300" d="M12.449,14.207c-0.154-0.387-0.3-0.767-0.438-1.14c-0.329,0.44-0.649,0.893-0.962,1.357
			c0.412,0.203,0.828,0.411,1.253,0.626C12.35,14.767,12.397,14.485,12.449,14.207z"/>
		<path fill="#FFD300" d="M17.689,9.157c-0.334-0.4-0.665-0.784-0.992-1.149c-0.379,0.323-0.754,0.662-1.125,1.015
			c0.322,0.359,0.654,0.744,0.995,1.153C16.938,9.82,17.312,9.48,17.689,9.157z"/>
		<path fill="#FFD300" d="M23.885,36.525c0.334,0.399,0.666,0.784,0.993,1.149c0.379-0.323,0.754-0.662,1.125-1.015
			c-0.322-0.359-0.654-0.744-0.995-1.153C24.638,35.862,24.264,36.202,23.885,36.525z"/>
		<path fill="#FFD300" d="M29.121,31.486c0.155,0.394,0.299,0.772,0.436,1.143c0.347-0.465,0.685-0.942,1.014-1.433
			c-0.423-0.209-0.852-0.423-1.287-0.644C29.231,30.867,29.179,31.18,29.121,31.486z"/>
		<path fill="#00A7E3" d="M16.805,41.868c0.031,0.035,0.062,0.07,0.095,0.104c0.073-0.017,0.146-0.038,0.22-0.057
			C17.016,41.897,16.908,41.89,16.805,41.868z"/>
		<path fill="#FFD300" d="M28.896,30.932c-0.534,0.765-1.093,1.489-1.668,2.18c-0.307,1.237-0.662,2.367-1.059,3.384
			c0.833-0.805,1.639-1.683,2.413-2.624c0.199-0.765,0.382-1.557,0.538-2.385C29.049,31.305,28.973,31.118,28.896,30.932z"/>
		<path fill="#FFD300" d="M24.778,3.815c-0.032-0.036-0.065-0.073-0.099-0.109c-0.077,0.018-0.154,0.041-0.231,0.06
			C24.558,3.786,24.67,3.794,24.778,3.815z"/>
		<path fill="#FFD300" d="M12.674,14.759c0.534-0.764,1.093-1.489,1.668-2.181c0.306-1.237,0.662-2.367,1.057-3.384
			c-0.832,0.805-1.638,1.683-2.411,2.624c-0.199,0.767-0.381,1.56-0.538,2.389C12.521,14.39,12.599,14.574,12.674,14.759z"/>
		<path fill="#00A7E3" d="M17.925,40.872c-0.374-0.138-0.746-0.289-1.114-0.453c-0.333,0.082-0.663,0.145-0.99,0.193
			c0.314,0.466,0.644,0.881,0.984,1.256c0.104,0.021,0.211,0.029,0.314,0.048c0.477-0.116,0.956-0.261,1.438-0.435
			C18.344,41.302,18.133,41.101,17.925,40.872z"/>
		<path fill="#FFD300" d="M23.654,4.807c0.374,0.138,0.745,0.29,1.113,0.453c0.333-0.081,0.663-0.145,0.99-0.192
			c-0.312-0.465-0.641-0.877-0.979-1.252c-0.108-0.021-0.221-0.029-0.33-0.05c-0.473,0.115-0.948,0.26-1.427,0.432
			C23.234,4.377,23.445,4.578,23.654,4.807z"/>
		<path fill="#FFD300" d="M12.674,14.759c-0.075-0.185-0.152-0.369-0.225-0.552c-0.052,0.278-0.1,0.56-0.147,0.844
			c0.044,0.022,0.088,0.045,0.132,0.067C12.514,14.999,12.593,14.876,12.674,14.759z"/>
		<path fill="#FFD300" d="M28.896,30.932c0.076,0.187,0.152,0.373,0.225,0.555c0.058-0.307,0.11-0.619,0.162-0.934
			c-0.032-0.017-0.064-0.033-0.098-0.05C29.09,30.646,28.995,30.792,28.896,30.932z"/>
		<path fill="#F44A98" d="M8.929,6.933C8.162,7.568,7.465,8.28,6.847,9.07c0.654-0.639,1.366-1.217,2.106-1.762
			C8.943,7.181,8.933,7.054,8.929,6.933z"/>
		<path fill="#F44A98" d="M32.655,38.732c0.754-0.63,1.438-1.326,2.041-2.096c-0.642,0.623-1.337,1.189-2.061,1.723
			C32.646,38.487,32.651,38.61,32.655,38.732z"/>
		<path fill="#F44A98" d="M7.884,30.288c-0.269-0.465-0.511-0.938-0.744-1.415c-0.076,0.753-0.127,1.498-0.122,2.222
			c0.002,0.241,0.023,0.466,0.034,0.699c2.114,3.367,4.979,6.078,8.173,7.847c-0.43-0.758-0.826-1.602-1.189-2.523
			C11.622,35.389,9.484,33.062,7.884,30.288z"/>
		<path fill="#F44A98" d="M25.253,7.153c-0.346-0.65-0.706-1.24-1.081-1.736c-0.528,0.158-1.061,0.36-1.594,0.595
			C23.486,6.311,24.381,6.695,25.253,7.153z"/>
		<path fill="#F44A98" d="M35.65,31.845c0.257,0.108,0.502,0.21,0.734,0.304c0.105-0.168,0.215-0.333,0.314-0.505
			c-0.247-0.192-0.51-0.394-0.797-0.609C35.82,31.306,35.746,31.581,35.65,31.845z"/>
		<path fill="#F44A98" d="M23.694,40.449c-0.81,0-1.622-0.077-2.431-0.216c-0.321,0.182-0.643,0.351-0.964,0.51
			c0.149,0.004,0.296,0.023,0.446,0.023l0.046,0.75v-0.75c1.091,0,2.155-0.111,3.195-0.292c0.013-0.017,0.025-0.03,0.038-0.046
			C23.914,40.432,23.807,40.449,23.694,40.449z"/>
		<path fill="#F44A98" d="M5.573,29.069c0.084-0.974,0.233-1.966,0.442-2.971c-1.029-3.098-1.344-6.307-0.85-9.349
			c0.031-0.188,0.08-0.366,0.117-0.552c-0.404-0.296-0.768-0.569-1.098-0.826c-0.185,0.392-0.352,0.791-0.507,1.197
			C3.026,20.663,3.702,25.027,5.573,29.069z"/>
		<path fill="#F44A98" d="M35.978,16.548c-0.081,0.98-0.218,1.986-0.429,3.015c1.112,3.355,1.345,6.764,0.755,9.839
			c0.394,0.29,0.768,0.572,1.117,0.846c0.164-0.352,0.312-0.711,0.452-1.074C38.523,25.189,37.929,20.746,35.978,16.548z"/>
		<path fill="#F44A98" d="M16.324,38.525c0.346,0.651,0.706,1.24,1.083,1.736c0.527-0.157,1.06-0.36,1.594-0.595
			C18.092,39.368,17.197,38.983,16.324,38.525z"/>
		<path fill="#F44A98" d="M16.804,3.808c0.012-0.014,0.024-0.027,0.036-0.041c-1.369,0.094-2.682,0.379-3.93,0.844
			c0.128,0.079,0.258,0.164,0.391,0.256C14.422,4.413,15.591,4.052,16.804,3.808z"/>
		<path fill="#F44A98" d="M33.69,15.388c0.276,0.478,0.522,0.962,0.759,1.449c0.107-1.012,0.139-1.984,0.098-2.915
			c-2.115-3.384-4.988-6.108-8.195-7.884c0.43,0.758,0.826,1.602,1.188,2.523C29.953,10.288,32.09,12.615,33.69,15.388z"/>
		<path fill="#F44A98" d="M30.462,40.247c0.096-0.052,0.192-0.099,0.287-0.153c0.109-0.063,0.206-0.142,0.312-0.207
			c0.045-0.141,0.075-0.315,0.087-0.529c-0.406,0.247-0.816,0.486-1.242,0.704C30.112,40.159,30.296,40.218,30.462,40.247z"/>
		<path fill="#F44A98" d="M17.88,5.229c0.812,0,1.626,0.077,2.436,0.217c0.321-0.183,0.644-0.352,0.965-0.511
			c-0.151-0.004-0.299-0.023-0.451-0.023c-1.111,0-2.194,0.113-3.251,0.299c-0.011,0.014-0.021,0.025-0.033,0.039
			C17.658,5.247,17.766,5.229,17.88,5.229z"/>
		<path fill="#F44A98" d="M24.766,41.872c-0.012,0.014-0.023,0.026-0.035,0.039c1.369-0.093,2.682-0.378,3.93-0.842
			c-0.129-0.079-0.258-0.164-0.39-0.256C27.148,41.266,25.979,41.628,24.766,41.872z"/>
		<path fill="#F44A98" d="M7.956,10.092c-0.664,0.643-1.266,1.343-1.824,2.077c0.142,0.059,0.274,0.109,0.421,0.172
			C6.95,11.53,7.425,10.785,7.956,10.092z"/>
		<path fill="#F44A98" d="M33.597,35.612c0.69-0.666,1.315-1.394,1.893-2.158c-0.147-0.061-0.287-0.115-0.44-0.181
			C34.644,34.11,34.152,34.888,33.597,35.612z"/>
		<path fill="#F44A98" d="M5.945,13.767c-0.25-0.105-0.488-0.204-0.716-0.296c-0.104,0.167-0.214,0.332-0.313,0.503
			c0.24,0.188,0.496,0.384,0.774,0.592C5.772,14.298,5.85,14.026,5.945,13.767z"/>
		<path fill="#F44A98" d="M11.106,5.435c-0.093,0.051-0.188,0.096-0.28,0.149c-0.102,0.059-0.191,0.131-0.291,0.191
			c-0.041,0.134-0.073,0.31-0.09,0.534c0.398-0.241,0.801-0.477,1.219-0.691C11.457,5.521,11.272,5.462,11.106,5.435z"/>
		<path fill="#F44A98" d="M35.489,33.454c-0.577,0.765-1.202,1.492-1.893,2.158c-0.358,0.466-0.737,0.912-1.156,1.323
			c0.096,0.504,0.162,0.979,0.195,1.424c0.724-0.533,1.419-1.1,2.061-1.723c0.676-0.863,1.255-1.805,1.733-2.812
			C36.132,33.713,35.818,33.588,35.489,33.454z"/>
		<path fill="#F44A98" d="M6.132,12.169c0.559-0.734,1.16-1.435,1.824-2.077C8.326,9.61,8.717,9.15,9.147,8.73
			C9.047,8.212,8.986,7.743,8.953,7.309C8.213,7.854,7.501,8.432,6.847,9.07C6.197,9.9,5.632,10.807,5.16,11.786
			C5.467,11.902,5.792,12.03,6.132,12.169z"/>
		<path fill="#F44A98" d="M21.28,4.935c0.39-0.192,0.779-0.368,1.169-0.525c-1.096-0.32-2.207-0.538-3.32-0.629
			C18.6,4.11,18.08,4.587,17.578,5.21c1.057-0.186,2.14-0.299,3.251-0.299C20.981,4.911,21.129,4.931,21.28,4.935z"/>
		<path fill="#F44A98" d="M15.561,5.456c0.391-0.626,0.809-1.17,1.243-1.648c-1.213,0.244-2.382,0.605-3.503,1.059
			c0.348,0.241,0.709,0.527,1.08,0.847C14.766,5.604,15.162,5.527,15.561,5.456z"/>
		<path fill="#F44A98" d="M31.07,38.083c-0.345,0.252-0.696,0.495-1.071,0.712c-0.381,0.22-0.777,0.401-1.176,0.578
			c0.402,0.307,0.766,0.539,1.083,0.688c0.426-0.218,0.836-0.457,1.242-0.704C31.166,39.021,31.141,38.595,31.07,38.083z"/>
		<path fill="#F44A98" d="M36.699,31.644c-0.1,0.172-0.209,0.337-0.314,0.505c0.227,0.092,0.443,0.177,0.646,0.254
			c0.047-0.13,0.082-0.265,0.127-0.396C37.016,31.892,36.859,31.769,36.699,31.644z"/>
		<path fill="#F44A98" d="M5.229,13.471c-0.238-0.096-0.464-0.185-0.677-0.265c-0.046,0.124-0.08,0.256-0.123,0.382
			c0.151,0.123,0.315,0.253,0.486,0.386C5.016,13.803,5.125,13.638,5.229,13.471z"/>
		<path fill="#F44A98" d="M3.963,15.202c-0.102,0.43-0.205,0.86-0.277,1.308c-0.003,0.02-0.004,0.04-0.007,0.06
			c0.155-0.406,0.322-0.806,0.507-1.197C4.112,15.316,4.033,15.256,3.963,15.202z"/>
		<path fill="#F44A98" d="M26.012,40.222c-0.393,0.627-0.811,1.171-1.246,1.65c1.214-0.244,2.383-0.606,3.505-1.059
			c-0.348-0.242-0.709-0.527-1.08-0.848C26.805,40.074,26.41,40.151,26.012,40.222z"/>
		<path fill="#F44A98" d="M37.615,30.399c0.096-0.405,0.19-0.811,0.258-1.227c-0.141,0.363-0.288,0.723-0.452,1.074
			C37.486,30.298,37.553,30.349,37.615,30.399z"/>
		<path fill="#F44A98" d="M10.498,7.595c0.348-0.253,0.703-0.495,1.078-0.712c0.38-0.22,0.774-0.4,1.172-0.576
			c-0.403-0.308-0.767-0.539-1.084-0.688c-0.418,0.215-0.82,0.45-1.219,0.691C10.422,6.631,10.431,7.051,10.498,7.595z"/>
		<path fill="#F44A98" d="M20.792,41.517l-0.046-0.75c-0.15,0-0.297-0.02-0.446-0.023c-0.39,0.193-0.78,0.369-1.17,0.527
			c1.093,0.318,2.2,0.535,3.311,0.626c0.527-0.327,1.047-0.803,1.547-1.422c-1.04,0.181-2.104,0.292-3.195,0.292V41.517z"/>
		<path fill="#F44A98" d="M29.906,40.062c-0.532,0.273-1.076,0.526-1.636,0.752c0.132,0.092,0.261,0.177,0.39,0.256
			c0.617-0.229,1.219-0.503,1.802-0.822C30.296,40.218,30.112,40.159,29.906,40.062z"/>
		<path fill="#00BCB2" d="M31.148,39.357c-0.012,0.214-0.042,0.389-0.087,0.529c0.565-0.348,1.094-0.736,1.594-1.154
			c-0.004-0.122-0.01-0.245-0.02-0.373C32.156,38.714,31.66,39.047,31.148,39.357z"/>
		<path fill="#00BCB2" d="M10.445,6.31c0.017-0.225,0.049-0.4,0.09-0.534c-0.567,0.347-1.1,0.737-1.606,1.157
			c0.004,0.121,0.015,0.248,0.024,0.376C9.435,6.954,9.932,6.621,10.445,6.31z"/>
		<path fill="#F44A98" d="M11.664,5.618c0.532-0.273,1.076-0.526,1.637-0.752c-0.133-0.092-0.263-0.177-0.391-0.256
			c-0.618,0.229-1.22,0.504-1.804,0.824C11.272,5.462,11.457,5.521,11.664,5.618z"/>
		<path fill="#00BCB2" d="M31.07,38.083c0.07,0.512,0.096,0.938,0.078,1.274c0.512-0.311,1.008-0.644,1.487-0.998
			c-0.033-0.444-0.1-0.92-0.195-1.424C32.017,37.352,31.555,37.73,31.07,38.083z"/>
		<path fill="#F44A98" d="M27.19,39.966c0.371,0.32,0.732,0.605,1.08,0.848c0.56-0.226,1.104-0.479,1.636-0.752
			c-0.317-0.149-0.681-0.382-1.083-0.688C28.293,39.608,27.75,39.809,27.19,39.966z"/>
		<path fill="#00BCB2" d="M10.498,7.595c-0.067-0.544-0.076-0.964-0.053-1.285C9.932,6.621,9.435,6.954,8.953,7.309
			C8.986,7.743,9.047,8.212,9.147,8.73C9.569,8.319,10.021,7.941,10.498,7.595z"/>
		<path fill="#F44A98" d="M14.381,5.713c-0.371-0.319-0.732-0.605-1.08-0.847c-0.561,0.226-1.104,0.479-1.637,0.752
			c0.317,0.149,0.681,0.381,1.084,0.688C13.278,6.071,13.821,5.87,14.381,5.713z"/>
		<path fill="#00A7E3" d="M17.179,3.75c-0.112,0.005-0.226,0.009-0.339,0.017c-0.012,0.014-0.024,0.027-0.036,0.041
			C16.927,3.782,17.055,3.772,17.179,3.75z"/>
		<path fill="#00A7E3" d="M17.578,5.21c-0.141,0.024-0.286,0.035-0.427,0.063c0.132-0.007,0.261-0.021,0.394-0.024
			C17.557,5.235,17.567,5.224,17.578,5.21z"/>
		<path fill="#F44A98" d="M23.987,40.475c0.159-0.028,0.324-0.042,0.483-0.073c-0.148,0.008-0.295,0.023-0.445,0.027
			C24.013,40.444,24,40.458,23.987,40.475z"/>
		<path fill="#F44A98" d="M24.397,41.928c0.11-0.005,0.223-0.009,0.333-0.017c0.012-0.013,0.023-0.025,0.035-0.039
			C24.645,41.896,24.52,41.905,24.397,41.928z"/>
		<path fill="#F44A98" d="M24.592,5.307c-0.14,0.036-0.279,0.068-0.42,0.11c0.375,0.496,0.735,1.086,1.081,1.736
			c0.783,0.41,1.548,0.879,2.287,1.408c-0.362-0.922-0.759-1.766-1.188-2.523c-0.361-0.2-0.729-0.387-1.099-0.563
			C25.031,5.42,24.816,5.353,24.592,5.307z"/>
		<path fill="#00A7E3" d="M16.986,40.372c0.141-0.036,0.28-0.068,0.421-0.11c-0.377-0.496-0.737-1.085-1.083-1.736
			c-0.784-0.411-1.55-0.88-2.289-1.408c0.363,0.922,0.76,1.766,1.189,2.523c0.362,0.2,0.729,0.387,1.098,0.562
			C16.545,40.258,16.762,40.325,16.986,40.372z"/>
		<path fill="#F44A98" d="M24.471,40.401c-0.159,0.031-0.324,0.045-0.483,0.073c-0.5,0.619-1.02,1.095-1.547,1.422
			c0.418,0.034,0.836,0.053,1.254,0.053c0.236,0,0.47-0.011,0.703-0.021c0.122-0.022,0.247-0.031,0.368-0.056
			c0.436-0.479,0.854-1.023,1.246-1.65C25.508,40.312,24.994,40.371,24.471,40.401z"/>
		<path fill="#00A7E3" d="M16.322,40.203c0.162,0.077,0.325,0.145,0.488,0.216c0.059-0.014,0.117-0.031,0.176-0.047
			C16.762,40.325,16.545,40.258,16.322,40.203z"/>
		<path fill="#00A7E3" d="M17.151,5.273c0.141-0.028,0.286-0.039,0.427-0.063c0.502-0.623,1.021-1.1,1.551-1.43
			c-0.416-0.034-0.833-0.052-1.249-0.052c-0.235,0-0.469,0.011-0.701,0.021c-0.124,0.022-0.252,0.032-0.375,0.058
			c-0.435,0.479-0.853,1.022-1.243,1.648C16.08,5.363,16.611,5.303,17.151,5.273z"/>
		<path fill="#F44A98" d="M25.253,5.475c-0.161-0.076-0.323-0.144-0.485-0.215c-0.058,0.015-0.117,0.031-0.176,0.047
			C24.816,5.353,25.031,5.42,25.253,5.475z"/>
		<path fill="#F44A98" d="M17.407,40.262c0.058,0.077,0.119,0.138,0.179,0.21c0.885,0.154,1.79,0.247,2.714,0.271
			c0.321-0.159,0.643-0.328,0.964-0.51c-0.76-0.131-1.516-0.32-2.263-0.566C18.467,39.901,17.935,40.104,17.407,40.262z"/>
		<path fill="#FFD300" d="M24.172,5.417c-0.059-0.077-0.12-0.137-0.18-0.211c-0.884-0.154-1.789-0.247-2.712-0.271
			c-0.321,0.159-0.644,0.328-0.965,0.511c0.76,0.131,1.515,0.321,2.263,0.566C23.111,5.777,23.644,5.575,24.172,5.417z"/>
		<path fill="#F44A98" d="M34.449,16.837c0.437,0.898,0.796,1.81,1.1,2.726c0.211-1.028,0.348-2.034,0.429-3.015
			c-0.299-0.644-0.625-1.281-0.988-1.91c-0.141-0.244-0.294-0.479-0.442-0.716C34.588,14.853,34.557,15.825,34.449,16.837z"/>
		<path fill="#FFD300" d="M7.14,28.873c-0.444-0.909-0.812-1.837-1.124-2.774c-0.209,1.005-0.358,1.997-0.442,2.971
			c0.308,0.666,0.64,1.324,1.012,1.969c0.149,0.258,0.31,0.506,0.467,0.756c-0.011-0.233-0.032-0.458-0.034-0.699
			C7.013,30.371,7.063,29.626,7.14,28.873z"/>
		<path fill="#F44A98" d="M17.586,40.472c0.111,0.14,0.225,0.275,0.339,0.4c0.399,0.147,0.801,0.28,1.205,0.398
			c0.39-0.158,0.78-0.334,1.17-0.527C19.376,40.719,18.471,40.626,17.586,40.472z"/>
		<path fill="#FFD300" d="M23.992,5.206c-0.111-0.139-0.225-0.274-0.338-0.399c-0.399-0.147-0.801-0.28-1.205-0.397
			c-0.39,0.157-0.779,0.333-1.169,0.525C22.203,4.959,23.108,5.052,23.992,5.206z"/>
		<path fill="#00A7E3" d="M16.986,40.372c0.197,0.041,0.4,0.065,0.6,0.1c-0.06-0.072-0.121-0.133-0.179-0.21
			C17.267,40.304,17.127,40.336,16.986,40.372z"/>
		<path fill="#FFD300" d="M24.592,5.307c-0.197-0.042-0.399-0.065-0.6-0.101c0.06,0.074,0.121,0.134,0.18,0.211
			C24.312,5.375,24.452,5.343,24.592,5.307z"/>
		<path fill="#FFD300" d="M24.592,5.307c0.059-0.016,0.118-0.032,0.176-0.047c-0.368-0.163-0.739-0.315-1.113-0.453
			c0.113,0.125,0.227,0.261,0.338,0.399C24.192,5.241,24.395,5.265,24.592,5.307z"/>
		<path fill="#00A7E3" d="M16.986,40.372c-0.059,0.016-0.117,0.033-0.176,0.047c0.368,0.164,0.74,0.315,1.114,0.453
			c-0.114-0.125-0.228-0.261-0.339-0.4C17.387,40.438,17.184,40.413,16.986,40.372z"/>
		<path fill="#0078A3" d="M21.414,21.77c1.564,0.903,3.029,1.772,4.4,2.605c-0.457-0.868-0.947-1.766-1.472-2.69
			c-0.756-0.448-1.479-0.872-2.152-1.261c-2.744-1.584-5.694-3.207-8.479-4.65c-0.053,0.342-0.108,0.679-0.153,1.032
			c0.125,0.276,0.243,0.549,0.374,0.83C16.202,18.829,18.718,20.213,21.414,21.77z"/>
		<path fill="#0078A3" d="M28.285,25.9c0.036-0.582,0.062-1.174,0.076-1.778c-0.481-0.3-0.963-0.596-1.438-0.886
			c0.448,0.848,0.904,1.74,1.354,2.659C28.277,25.896,28.283,25.898,28.285,25.9z"/>
		<path fill="#0078A3" d="M11.842,18.774c-0.402-0.258-0.792-0.51-1.17-0.757c-0.25,0.46-0.491,0.921-0.717,1.385
			c0.573,0.374,1.163,0.754,1.773,1.141C11.755,19.944,11.794,19.356,11.842,18.774z"/>
		<path fill="#0078A3" d="M20.208,23.853c-1.609-0.93-3.116-1.823-4.521-2.678c0.466,0.889,0.961,1.789,1.472,2.691
			c0.748,0.443,1.504,0.888,2.273,1.332c2.732,1.577,5.669,3.192,8.442,4.631c0.048-0.318,0.1-0.632,0.142-0.96
			c-0.137-0.306-0.287-0.624-0.434-0.939C25.341,26.749,22.861,25.384,20.208,23.853z"/>
		<path fill="#0078A3" d="M29.738,26.821c0.414,0.265,0.814,0.524,1.202,0.778c0.249-0.462,0.489-0.923,0.714-1.387
			c-0.594-0.386-1.196-0.773-1.803-1.157C29.825,25.653,29.784,26.239,29.738,26.821z"/>
		<path fill="#0078A3" d="M29.9,29.403c0.043-0.068,0.085-0.14,0.128-0.209c-0.093-0.047-0.189-0.098-0.282-0.145
			C29.798,29.168,29.85,29.286,29.9,29.403z"/>
		<path fill="#0078A3" d="M30.617,31.125c0.016,0.039,0.031,0.078,0.047,0.117c1.601,0.789,3.094,1.486,4.385,2.031
			c0.225-0.462,0.425-0.938,0.602-1.429c-1.184-0.503-2.608-1.159-4.242-1.963C31.15,30.304,30.889,30.719,30.617,31.125z"/>
		<path fill="#0078A3" d="M8.659,18.547c0.229-0.463,0.476-0.922,0.728-1.38c-1.469-0.984-2.701-1.857-3.696-2.602
			c-0.161,0.528-0.298,1.072-0.407,1.633c0.344,0.252,0.707,0.515,1.108,0.798C7.092,17.49,7.858,18.012,8.659,18.547z"/>
		<path fill="#0078A3" d="M3.576,12.863c0.067,0.021,0.147,0.05,0.22,0.074c0.276-0.455,0.565-0.899,0.877-1.329
			c-0.979-0.345-1.757-0.545-2.243-0.545c-0.626,0-0.923,0.285-1.062,0.525c-0.297,0.518-0.324,1.134,1.625,2.814
			c0.234-0.474,0.484-0.938,0.756-1.39C3.692,12.964,3.628,12.91,3.576,12.863z"/>
		<path fill="#0078A3" d="M10.96,14.558c-0.029-0.074-0.056-0.146-0.084-0.219c-1.577-0.775-3.05-1.462-4.323-1.998
			c-0.226,0.458-0.428,0.934-0.607,1.426c1.188,0.503,2.62,1.162,4.264,1.971C10.453,15.337,10.703,14.943,10.96,14.558z"/>
		<path fill="#0078A3" d="M32.226,28.449c1.458,0.978,2.685,1.845,3.677,2.585c0.16-0.531,0.294-1.075,0.401-1.633
			c-1.007-0.74-2.146-1.529-3.354-2.335C32.725,27.529,32.477,27.989,32.226,28.449z"/>
		<path fill="#0078A3" d="M38.611,31.22c-0.231,0.472-0.478,0.934-0.746,1.383c0.06,0.052,0.126,0.108,0.18,0.157
			c-0.07-0.022-0.153-0.052-0.229-0.077c-0.274,0.455-0.561,0.901-0.871,1.332c0.98,0.346,1.759,0.546,2.244,0.546
			c0.627,0,0.923-0.286,1.06-0.522c0.096-0.164,0.188-0.435,0.092-0.794C40.214,32.768,39.584,32.065,38.611,31.22z"/>
		<path fill="#0078A3" d="M13.214,21.476c0.448,0.277,0.901,0.558,1.364,0.84c-0.451-0.85-0.883-1.692-1.291-2.521
			C13.254,20.344,13.229,20.903,13.214,21.476z"/>
		<path fill="#0078A3" d="M11.672,16.288c-0.028,0.045-0.056,0.091-0.083,0.137c0.058,0.029,0.12,0.062,0.179,0.091
			C11.733,16.438,11.705,16.364,11.672,16.288z"/>
		<path fill="#8FCB30" d="M37.158,32.007c0.269,0.218,0.501,0.414,0.707,0.596c0.269-0.449,0.515-0.911,0.746-1.383
			c-0.301-0.261-0.635-0.535-0.996-0.82C37.487,30.946,37.334,31.482,37.158,32.007z"/>
		<path fill="#8FCB30" d="M4.553,13.206c0.18-0.489,0.386-0.96,0.607-1.42c-0.167-0.062-0.331-0.123-0.487-0.178
			c-0.312,0.43-0.601,0.874-0.877,1.329C4.025,13.014,4.278,13.104,4.553,13.206z"/>
		<path fill="#0078A3" d="M4.43,13.588c-0.258-0.209-0.482-0.398-0.682-0.574c-0.271,0.452-0.521,0.916-0.756,1.39
			c0.282,0.244,0.6,0.507,0.971,0.799C4.095,14.648,4.252,14.111,4.43,13.588z"/>
		<path fill="#0078A3" d="M37.031,32.402c-0.178,0.487-0.381,0.96-0.602,1.423c0.178,0.066,0.351,0.131,0.516,0.189
			c0.311-0.431,0.597-0.877,0.871-1.332C37.578,32.604,37.316,32.511,37.031,32.402z"/>
		<path fill="#00BCB2" d="M29.523,28.936c-0.059,0.464-0.129,0.914-0.2,1.363c0.196-0.294,0.389-0.592,0.577-0.896
			c-0.051-0.117-0.103-0.235-0.154-0.354C29.672,29.013,29.597,28.974,29.523,28.936z"/>
		<path fill="#0078A3" d="M30.57,31.196c0.031,0.016,0.062,0.03,0.094,0.046c-0.016-0.039-0.031-0.078-0.047-0.117
			C30.602,31.149,30.586,31.172,30.57,31.196z"/>
		<path fill="#0078A3" d="M11.049,14.425c-0.058-0.028-0.115-0.058-0.173-0.086c0.028,0.073,0.055,0.145,0.084,0.219
			C10.989,14.513,11.02,14.469,11.049,14.425z"/>
		<path fill="#0078A3" d="M25.814,24.375c0.862,0.523,1.681,1.029,2.463,1.521c-0.45-0.919-0.906-1.812-1.354-2.659
			c-0.886-0.541-1.752-1.062-2.58-1.552C24.867,22.609,25.357,23.507,25.814,24.375z"/>
		<path fill="#00BCB2" d="M15.687,21.175c-0.837-0.509-1.632-1.001-2.393-1.479c-0.003,0.032-0.005,0.064-0.007,0.098
			c0.408,0.829,0.84,1.672,1.291,2.521c0.84,0.513,1.7,1.03,2.58,1.551C16.647,22.964,16.152,22.063,15.687,21.175z"/>
		<path fill="#00BCB2" d="M13.559,16.806c-0.025,0.195-0.042,0.401-0.064,0.601c0.146,0.076,0.29,0.151,0.438,0.229
			C13.802,17.354,13.684,17.082,13.559,16.806z"/>
		<path fill="#00BCB2" d="M12.06,16.665c0.056-0.434,0.123-0.853,0.189-1.273c-0.196,0.295-0.389,0.592-0.577,0.896
			c0.033,0.076,0.062,0.15,0.096,0.228C11.863,16.564,11.963,16.616,12.06,16.665z"/>
		<path fill="#00BCB2" d="M28.016,28.869c0.028-0.22,0.048-0.45,0.073-0.675c-0.17-0.088-0.335-0.174-0.507-0.265
			C27.729,28.245,27.879,28.563,28.016,28.869z"/>
		<path fill="#0078A3" d="M29.738,26.821c0.046-0.582,0.087-1.168,0.113-1.766c-0.496-0.314-0.994-0.626-1.49-0.934
			c-0.015,0.604-0.04,1.196-0.076,1.778C28.785,26.214,29.271,26.521,29.738,26.821z"/>
		<path fill="#00A7E3" d="M13.218,19.648c-0.474-0.298-0.934-0.589-1.376-0.874c-0.048,0.582-0.087,1.17-0.113,1.769
			c0.484,0.308,0.98,0.618,1.485,0.933c0.016-0.572,0.04-1.132,0.073-1.682C13.264,19.745,13.241,19.697,13.218,19.648z"/>
		<path fill="#0078A3" d="M28.6,30.205c-0.184-0.433-0.379-0.879-0.584-1.336c-0.042,0.328-0.094,0.642-0.142,0.96
			C28.116,29.955,28.359,30.082,28.6,30.205z"/>
		<path fill="#00A7E3" d="M12.931,15.37c0.199,0.472,0.409,0.949,0.628,1.436c0.045-0.354,0.101-0.69,0.153-1.032
			C13.45,15.638,13.189,15.503,12.931,15.37z"/>
		<path fill="#00BCB2" d="M13.494,17.406c0.022-0.199,0.039-0.405,0.064-0.601c-0.219-0.486-0.429-0.964-0.628-1.436
			c-0.167-0.086-0.331-0.168-0.497-0.252c-0.062,0.091-0.123,0.182-0.185,0.273c-0.066,0.421-0.134,0.84-0.189,1.273
			C12.525,16.902,13.003,17.149,13.494,17.406z"/>
		<path fill="#00BCB2" d="M28.089,28.194c-0.025,0.225-0.045,0.455-0.073,0.675c0.205,0.457,0.4,0.903,0.584,1.336
			c0.197,0.102,0.391,0.198,0.586,0.298c0.046-0.068,0.092-0.136,0.138-0.204c0.071-0.449,0.142-0.899,0.2-1.363
			C29.058,28.698,28.579,28.451,28.089,28.194z"/>
		<path fill="#00BCB2" d="M13.287,19.794c0.002-0.033,0.004-0.065,0.007-0.098c-0.025-0.016-0.052-0.032-0.076-0.048
			C13.241,19.697,13.264,19.745,13.287,19.794z"/>
		<path fill="#0078A3" d="M31.654,26.213c-0.225,0.464-0.465,0.925-0.714,1.387c0.444,0.29,0.876,0.575,1.285,0.85
			c0.251-0.46,0.499-0.92,0.725-1.383C32.525,26.783,32.093,26.499,31.654,26.213z"/>
		<path fill="#FFD300" d="M29.9,29.403c0.25,0.576,0.489,1.151,0.717,1.722c0.271-0.406,0.533-0.821,0.791-1.243
			c-0.447-0.22-0.904-0.447-1.38-0.688C29.985,29.264,29.943,29.335,29.9,29.403z"/>
		<path fill="#FFD300" d="M11.672,16.288c-0.254-0.59-0.489-1.166-0.712-1.73c-0.257,0.386-0.507,0.779-0.751,1.18
			c0.446,0.219,0.903,0.446,1.38,0.688C11.616,16.379,11.644,16.333,11.672,16.288z"/>
		<path fill="#0078A3" d="M9.387,17.167c-0.252,0.458-0.499,0.917-0.728,1.38c0.419,0.28,0.852,0.565,1.296,0.855
			c0.226-0.464,0.467-0.925,0.717-1.385C10.228,17.727,9.795,17.441,9.387,17.167z"/>
		<path fill="#FFD300" d="M29.323,30.299c-0.014,0.084-0.026,0.17-0.04,0.254c0.436,0.221,0.864,0.435,1.287,0.644
			c0.016-0.024,0.031-0.047,0.047-0.071c-0.228-0.57-0.467-1.146-0.717-1.722C29.712,29.707,29.52,30.005,29.323,30.299z"/>
		<path fill="#FFD300" d="M12.249,15.392c0.018-0.113,0.034-0.229,0.053-0.341c-0.425-0.215-0.841-0.423-1.253-0.626
			c-0.029,0.044-0.06,0.088-0.089,0.133c0.223,0.564,0.458,1.141,0.712,1.73C11.86,15.983,12.053,15.687,12.249,15.392z"/>
		<path fill="#FFD300" d="M29.283,30.553c0.014-0.084,0.026-0.17,0.04-0.254c-0.046,0.068-0.092,0.136-0.138,0.204
			C29.219,30.52,29.251,30.536,29.283,30.553z"/>
		<path fill="#FFD300" d="M12.302,15.051c-0.019,0.112-0.035,0.228-0.053,0.341c0.062-0.092,0.122-0.183,0.185-0.273
			C12.39,15.096,12.346,15.073,12.302,15.051z"/>
		<path fill="#F44A98" d="M36.304,29.401c-0.107,0.558-0.241,1.102-0.401,1.633c0.287,0.216,0.55,0.417,0.797,0.609
			c0.262-0.453,0.5-0.92,0.722-1.396C37.071,29.974,36.697,29.691,36.304,29.401z"/>
		<path fill="#0078A3" d="M35.65,31.845c-0.177,0.49-0.377,0.967-0.602,1.429c0.153,0.065,0.293,0.12,0.44,0.181
			c0.317-0.422,0.616-0.857,0.896-1.306C36.152,32.055,35.907,31.953,35.65,31.845z"/>
		<path fill="#0078A3" d="M4.916,13.974c-0.266,0.454-0.506,0.922-0.73,1.398c0.33,0.257,0.693,0.53,1.098,0.826
			c0.109-0.561,0.246-1.104,0.407-1.633C5.412,14.357,5.156,14.161,4.916,13.974z"/>
		<path fill="#F44A98" d="M5.945,13.767c0.18-0.492,0.382-0.968,0.607-1.426c-0.146-0.062-0.279-0.113-0.421-0.172
			c-0.319,0.421-0.62,0.854-0.902,1.302C5.457,13.562,5.695,13.661,5.945,13.767z"/>
		<path fill="#F44A98" d="M6.132,12.169c-0.34-0.139-0.665-0.267-0.972-0.383c-0.222,0.46-0.428,0.931-0.607,1.42
			c0.213,0.08,0.438,0.169,0.677,0.265C5.512,13.023,5.812,12.59,6.132,12.169z"/>
		<path fill="#0078A3" d="M4.916,13.974c-0.171-0.133-0.335-0.263-0.486-0.386c-0.178,0.523-0.335,1.061-0.467,1.614
			c0.07,0.054,0.149,0.114,0.223,0.17C4.41,14.896,4.65,14.428,4.916,13.974z"/>
		<path fill="#0078A3" d="M35.489,33.454c0.329,0.134,0.643,0.259,0.94,0.371c0.221-0.463,0.424-0.936,0.602-1.423
			c-0.203-0.077-0.42-0.162-0.646-0.254C36.105,32.597,35.807,33.032,35.489,33.454z"/>
		<path fill="#F44A98" d="M36.699,31.644c0.16,0.125,0.316,0.248,0.459,0.363c0.176-0.524,0.329-1.061,0.457-1.607
			c-0.062-0.051-0.129-0.102-0.194-0.152C37.199,30.724,36.961,31.19,36.699,31.644z"/>
	</g>
</g>
</svg>
